<svg width="123" height="40" viewBox="0 0 123 40" fill="none" xmlns="http://www.w3.org/2000/svg">
<path d="M7.04759 17.4534L11.4136 13.0653L15.7813 17.4569L18.3203 14.9023L11.4136 7.95605L4.50684 14.9005L7.04759 17.4534Z" fill="white"/>
<path d="M0.172852 19.2573L2.71267 16.7036L5.2525 19.2573L2.71267 21.811L0.172852 19.2573Z" fill="white"/>
<path d="M7.04919 21.0614L11.4152 25.4512L15.7829 21.0596L18.3237 23.6106L18.3219 23.6124L11.4152 30.5587L4.50843 23.616L4.50488 23.6124L7.04919 21.0614Z" fill="white"/>
<path d="M17.5713 19.2588L20.1111 16.7051L22.6509 19.2588L20.1111 21.8125L17.5713 19.2588Z" fill="white"/>
<path d="M13.992 19.2567L11.4158 16.6646L9.51063 18.5801L9.29047 18.7997L8.83949 19.2531L8.83594 19.2567L8.83949 19.262L11.4158 21.8506L13.992 19.2585L13.9938 19.2567H13.992Z" fill="white"/>
<path d="M26.6123 13.4307H32.1377C33.5084 13.4307 34.5453 13.7877 35.2484 14.5018C35.5133 14.7656 35.7221 15.0807 35.8622 15.4281C36.0023 15.7755 36.0707 16.1479 36.0633 16.5226V16.5566C36.0681 16.8636 36.0256 17.1695 35.9373 17.4635C35.8586 17.7165 35.7444 17.957 35.5981 18.1775C35.4618 18.3855 35.2968 18.5731 35.1081 18.7345C34.9237 18.8941 34.7218 19.0318 34.5062 19.1451C35.1279 19.3629 35.687 19.7306 36.1344 20.2162C36.5297 20.6685 36.7274 21.2933 36.7274 22.0907V22.1246C36.7386 22.6226 36.6308 23.1161 36.4131 23.5635C36.2021 23.9758 35.8929 24.3291 35.5129 24.5918C35.0834 24.8813 34.6051 25.09 34.1014 25.2077C33.5029 25.3504 32.8894 25.4193 32.2744 25.413H26.6123V13.4307ZM31.5837 18.2757C32.0618 18.299 32.5375 18.1955 32.9633 17.9758C33.1293 17.8783 33.2649 17.736 33.3547 17.565C33.4444 17.3939 33.4847 17.2011 33.4711 17.0082V16.9743C33.4799 16.7966 33.444 16.6195 33.3667 16.4595C33.2894 16.2994 33.1733 16.1615 33.029 16.0585C32.7343 15.8478 32.3087 15.7425 31.7524 15.7425H29.1673V18.2757H31.5837ZM32.2815 23.1047C32.7578 23.1315 33.2318 23.022 33.6486 22.7887C33.811 22.6838 33.9425 22.5371 34.0293 22.3638C34.1161 22.1905 34.1551 21.9969 34.1422 21.8033V21.7694C34.1486 21.5853 34.1101 21.4025 34.0299 21.237C33.9497 21.0714 33.8304 20.9281 33.6824 20.8196C33.377 20.5816 32.8834 20.4626 32.2016 20.4626H29.1673V23.1047H32.2815Z" fill="white"/>
<path d="M40.0215 13.4307H42.6439V25.4166H40.0215V13.4307Z" fill="white"/>
<path d="M46.6084 13.4307H49.0266L54.6159 20.8072V13.4307H57.2046V25.4166H54.9728L49.2006 17.7973V25.4166H46.6084V13.4307Z" fill="white"/>
<path d="M65.148 13.3452H67.5627L72.6708 25.4168H69.933L68.8428 22.7283H63.8022L62.712 25.4168H60.0381L65.148 13.3452ZM67.9071 20.4004L66.3198 16.5122L64.7396 20.4004H67.9071Z" fill="white"/>
<path d="M75.5068 13.4307H77.9251L83.5108 20.8072V13.4307H86.0995V25.4166H83.8677L78.0955 17.7973V25.4166H75.5068V13.4307Z" fill="white"/>
<path d="M95.5379 25.628C94.7022 25.6352 93.8736 25.4724 93.1019 25.1495C92.3755 24.8479 91.7164 24.4032 91.1636 23.8415C90.6107 23.2798 90.1753 22.6125 89.8829 21.879C89.5744 21.1118 89.4182 20.2912 89.4231 19.4636V19.4297C89.4094 17.7984 90.0336 16.227 91.1613 15.0542C91.7161 14.4812 92.3805 14.027 93.1143 13.7188C93.9126 13.3864 94.7698 13.2205 95.6338 13.2315C96.1448 13.2276 96.655 13.2737 97.1572 13.3689C97.5868 13.4506 98.0069 13.5769 98.4107 13.7456C98.7771 13.9007 99.1254 14.0958 99.4494 14.3276C99.7655 14.5536 100.062 14.8056 100.337 15.0809L98.6699 17.0161C98.2439 16.6209 97.766 16.2864 97.2495 16.0217C96.7422 15.7778 96.1854 15.6556 95.6231 15.6647C95.1552 15.6597 94.6915 15.7548 94.263 15.9438C93.8344 16.1328 93.4507 16.4113 93.1374 16.7608C92.8268 17.1095 92.5835 17.5133 92.4201 17.9516C92.2491 18.4147 92.163 18.9053 92.1662 19.3994V19.4333C92.1646 19.9266 92.2506 20.4163 92.4201 20.8793C92.5815 21.3192 92.8222 21.7253 93.1303 22.0772C93.4411 22.431 93.8239 22.7136 94.2528 22.9058C94.6816 23.098 95.1465 23.1953 95.616 23.1911C96.2139 23.2101 96.8072 23.0807 97.3436 22.8145C97.8543 22.5346 98.3264 22.189 98.748 21.7862L100.417 23.4821C100.122 23.8037 99.8036 24.1021 99.4636 24.3747C99.1295 24.6403 98.7668 24.8673 98.3823 25.0513C97.9725 25.2453 97.5409 25.3885 97.0968 25.478C96.5837 25.5814 96.0613 25.6317 95.5379 25.628Z" fill="white"/>
<path d="M103.509 13.4307H112.48V15.7764H106.089V18.2079H111.717V20.5537H106.097V23.0708H112.569V25.4166H103.514L103.509 13.4307Z" fill="white"/>
</svg>
