<svg width="123" height="40" viewBox="0 0 123 40" fill="none" xmlns="http://www.w3.org/2000/svg">
<path fill-rule="evenodd" clip-rule="evenodd" d="M52.8701 16.7705H56.3346V28.4765H52.8701V16.7705Z" fill="white"/>
<path d="M50.6371 21.5455C50.2635 20.8807 49.7294 20.3125 49.0853 19.892C49.8817 19.0159 50.3514 17.8522 50.294 16.5783C50.1769 14.0521 47.9515 12.1021 45.3467 12.1021H38.125V28.4741H46.388C49.0572 28.4741 51.2216 26.3751 51.2216 23.783C51.2216 22.9728 51.0108 22.2114 50.6371 21.5455ZM45.8504 25.6956H41.5883V21.6773H45.8258C46.9384 21.6773 47.8801 22.5353 47.8801 23.6876C47.8801 24.8251 46.9408 25.6956 45.8504 25.6956ZM44.945 18.8988H41.5883V14.8817H44.9192C46.0331 14.8817 46.9747 15.7385 46.9747 16.8908C46.9724 18.0272 46.0331 18.8988 44.945 18.8988Z" fill="white"/>
<path d="M97.3186 12.5884H93.333L90.2199 17.4306L87.1079 12.5884H83.1211L88.2276 20.5318L83.1211 28.4763H87.1079L90.2199 23.6341L93.333 28.4763H97.3186L92.2133 20.5318L97.3186 12.5884Z" fill="white"/>
<path d="M68.688 21.9635V28.4739H65.2247V21.3805C65.2247 20.3487 64.3474 19.5157 63.2746 19.5452C62.2416 19.5759 61.444 20.4521 61.444 21.4567V28.4716H57.9795V16.7656H61.444V17.3236C62.224 16.9656 63.093 16.7656 64.0124 16.7656C64.4727 16.7656 64.9213 16.8156 65.3523 16.9111C67.272 17.335 68.6282 18.9986 68.6774 20.9078C68.6844 21.251 68.688 21.6055 68.688 21.9635Z" fill="white"/>
<path fill-rule="evenodd" clip-rule="evenodd" d="M52.8701 12.1016H56.3346V15.463H52.8701V12.1016Z" fill="white"/>
<path d="M82.1931 16.7684H76.2187C76.1988 16.7684 76.18 16.7661 76.1589 16.7661C72.828 16.7661 70.1271 19.3878 70.1271 22.6208C70.1271 25.8379 72.801 28.4471 76.1074 28.471C76.1226 28.4744 76.1402 28.4744 76.1589 28.4744C77.4449 28.4744 78.7286 28.8403 78.7286 29.9255C78.7286 31.0267 77.5656 31.962 76.1589 31.962C74.7406 31.962 73.5904 30.846 73.5904 29.4699H70.126C70.126 32.7018 72.828 35.3234 76.1578 35.3234C79.4911 35.3234 82.1895 32.7018 82.1895 29.4699C82.1895 29.4699 82.2563 27.7209 80.7279 26.4414C81.6414 25.4175 82.1907 24.0845 82.1907 22.6208C82.1907 21.4924 81.8628 20.4401 81.2924 19.5469H82.1931V16.7684ZM76.1589 25.1129C74.7406 25.1129 73.5904 23.997 73.5904 22.6208C73.5904 21.2446 74.7406 20.1287 76.1589 20.1287C77.5773 20.1287 78.7286 21.2446 78.7286 22.6208C78.7286 23.997 77.5773 25.1129 76.1589 25.1129Z" fill="white"/>
<path d="M32.442 8.05078C28.7363 8.05078 25.0727 8.9599 21.8448 10.6815C20.1161 11.6031 18.5197 12.7464 17.1014 14.0816C16.7676 14.3941 16.4408 14.7214 16.1281 15.0555C15.0822 16.1737 14.1546 17.401 13.3757 18.7022C13.0993 19.1693 12.7924 19.6249 12.4645 20.0602C12.4212 20.117 12.3802 20.1738 12.3333 20.2295C9.46502 23.9126 5.09519 26.024 0.344727 26.024V32.8287C4.05047 32.8287 7.71404 31.9196 10.9419 30.1991C12.6671 29.2797 14.2635 28.1343 15.6854 26.799C16.0192 26.4854 16.3459 26.1581 16.6598 25.8251C17.7069 24.7058 18.631 23.4807 19.4098 22.1784L19.4614 22.0943C19.7249 21.6557 20.0154 21.2284 20.3211 20.8216C20.3644 20.7659 20.4077 20.7079 20.4534 20.6488C23.3205 16.9669 27.6915 14.8544 32.442 14.8544V8.05078Z" fill="white"/>
<path d="M32.442 26.0272C27.6915 26.0272 23.3205 23.9147 20.4511 20.2316C20.4089 20.1759 20.3644 20.1203 20.3211 20.06C19.9943 19.6282 19.6874 19.1714 19.411 18.7032C18.6322 17.4031 17.7057 16.177 16.6586 15.0576C16.3459 14.7258 16.0192 14.3985 15.6854 14.0849C14.267 12.7496 12.6718 11.6053 10.9419 10.6848C7.71404 8.96429 4.05047 8.05518 0.344727 8.05518V14.8599C5.09519 14.8599 9.46619 16.9713 12.3357 20.6544C12.3802 20.7101 12.4223 20.768 12.4657 20.8237C12.7737 21.2317 13.0642 21.6601 13.3242 22.0942L13.3792 22.1828C14.1569 23.4817 15.0822 24.7067 16.1281 25.8272C16.4396 26.1591 16.7676 26.4863 17.1014 26.8C18.5221 28.1352 20.1184 29.2807 21.8448 30.2001C25.0727 31.9206 28.7363 32.8297 32.442 32.8297V26.0272Z" fill="white"/>
</svg>
