<svg width="123" height="40" viewBox="0 0 123 40" fill="none" xmlns="http://www.w3.org/2000/svg">
<g opacity="0.4">
<path d="M93.9798 25.8269C94.0527 25.9156 93.998 26.0397 93.8888 26.0397H90.9749C90.9385 26.0397 90.9021 26.022 90.8839 26.0042L87.0048 22.015L83.0894 26.0042C83.0712 26.0397 83.0347 26.0397 82.9983 26.0397H80.0845C79.9752 26.0397 79.9024 25.8978 79.9934 25.8269L85.3294 20.3839L80.1755 15.1005C80.1027 15.0118 80.1573 14.8877 80.2666 14.8877H83.1804C83.2169 14.8877 83.2533 14.9054 83.2715 14.9232L86.9684 18.7528L90.6836 14.9232C90.7018 14.8877 90.7382 14.8877 90.7746 14.8877H93.6885C93.7977 14.8877 93.8706 15.0295 93.7795 15.1005L88.6439 20.3839L93.9798 25.8269ZM66.4076 26.0397C66.3166 26.0397 66.2255 25.951 66.2255 25.8624V15.065C66.2255 14.9586 66.3166 14.8877 66.4076 14.8877H77.3892C77.4984 14.8877 77.5713 14.9763 77.5713 15.065V16.6075C77.5713 16.6961 77.4802 16.7848 77.3892 16.7848H68.8844V19.2669H73.9836C74.0929 19.2669 74.1657 19.3556 74.1657 19.4442V20.9867C74.1657 21.0931 74.0747 21.164 73.9836 21.164H68.8844V23.9476H77.4984C77.5895 23.9476 77.6805 24.0185 77.6805 24.1249V25.8624C77.6805 25.9688 77.5895 26.0397 77.4984 26.0397H66.4076ZM46.9396 26.0397C46.8485 26.0397 46.7574 25.951 46.7574 25.8624V15.065C46.7574 14.9586 46.8485 14.8877 46.9396 14.8877H49.2342C49.3435 14.8877 49.4163 14.9763 49.4163 15.065V25.8624C49.4163 25.9688 49.3253 26.0397 49.2342 26.0397H46.9396ZM33.8819 26.0397C33.7726 26.0397 33.6998 25.951 33.6998 25.8624V15.065C33.6998 14.9586 33.7726 14.8877 33.8819 14.8877H44.736C44.8452 14.8877 44.9181 14.9763 44.9181 15.065V16.6607C44.9181 16.7493 44.8452 16.838 44.736 16.838H36.3587V19.7811H40.9844C41.0937 19.7811 41.1665 19.8697 41.1665 19.9584V21.625C41.1665 21.7314 41.0754 21.8023 40.9844 21.8023H36.3587V25.8624C36.3587 25.9688 36.2676 26.0397 36.1766 26.0397H33.8819ZM26.743 16.8734V25.8624C26.743 25.9688 26.6519 26.0397 26.5609 26.0397H24.2662C24.1752 26.0397 24.0841 25.951 24.0841 25.8624V16.8734H19.1852C19.076 16.8734 19.0031 16.7848 19.0031 16.6961V15.065C19.0031 14.9586 19.076 14.8877 19.1852 14.8877H31.6601C31.7512 14.8877 31.8422 14.9763 31.8422 15.065V16.6961C31.8422 16.8025 31.7512 16.8734 31.6601 16.8734H26.743ZM14.687 26.0397C14.5777 26.0397 14.5049 25.951 14.5049 25.8624V15.065C14.5049 14.9586 14.5959 14.8877 14.687 14.8877H16.9816C17.0909 14.8877 17.1638 14.9763 17.1638 15.065V25.8624C17.1638 25.9688 17.0727 26.0397 16.9816 26.0397H14.687Z" fill="white"/>
<path fill-rule="evenodd" clip-rule="evenodd" d="M0.172852 15.065C0.172852 14.9586 0.263909 14.8877 0.354966 14.8877H10.171C11.5004 14.8877 12.5567 15.9337 12.5567 17.2103V17.9549C12.5567 19.2492 11.4822 20.2775 10.171 20.2775H10.262C11.5915 20.2775 12.6659 21.3236 12.6659 22.6001V23.6994C12.6659 24.9936 11.5915 26.022 10.262 26.022H0.354966C0.245698 26.022 0.172852 25.9333 0.172852 25.8447V15.065ZM2.79531 16.6961H9.00542C9.62462 16.6961 10.1163 17.1748 10.1163 17.7776V18.2918C10.1163 18.8946 9.62462 19.3733 9.00542 19.3733H2.79531V16.6961ZM2.79531 21.1995H9.06006C9.67925 21.1995 10.171 21.6782 10.171 22.281V22.9724C10.171 23.5753 9.67925 24.054 9.06006 24.054H2.79531V21.1995Z" fill="white"/>
<path d="M51.2549 25.8624V15.065C51.2549 14.9586 51.3459 14.8877 51.437 14.8877H53.0032C53.0578 14.8877 53.0942 14.9054 53.1307 14.9409L61.9814 22.5647V15.0827C61.9814 14.9763 62.0543 14.9054 62.1636 14.9054H64.2032C64.3125 14.9054 64.3854 14.9941 64.3854 15.0827V25.8801C64.3854 25.9865 64.3125 26.0574 64.2032 26.0574H62.6371C62.6006 26.0574 62.546 26.0397 62.5096 26.0042L53.677 18.3627V25.8624C53.677 25.9688 53.586 26.0397 53.4949 26.0397H51.4552C51.3459 26.0397 51.2731 25.951 51.2549 25.8624Z" fill="white"/>
<path d="M96.2005 21.555C96.0912 19.7288 96.8743 17.6899 98.4951 16.112C102.028 12.6724 109.386 13.1511 109.422 13.1511C109.404 13.1866 104.031 20.7749 97.6574 21.4841C97.1657 21.5373 96.674 21.555 96.2005 21.555Z" fill="white"/>
<path d="M96.9492 23.877C97.1313 24.1607 97.3499 24.4266 97.6048 24.6571C99.7902 26.7847 103.724 26.3946 106.401 23.7706C109.952 20.3133 109.442 13.1328 109.442 13.1328C109.424 13.1683 105.563 21.5899 99.4442 23.416C98.5883 23.682 97.7505 23.8416 96.9492 23.877Z" fill="white"/>
</g>
</svg>
