<svg width="123" height="40" viewBox="0 0 123 40" fill="none" xmlns="http://www.w3.org/2000/svg">
<path d="M97.9005 15.3002C98.0093 15.3002 98.1182 15.3002 98.227 15.4058C98.3358 15.5114 98.3358 15.617 98.3358 15.7226V18.0458C98.3358 18.1514 98.3358 18.257 98.227 18.3626C98.1182 18.4682 98.0093 18.4682 97.9005 18.4682H95.8324V27.761C95.8324 27.8666 95.8324 27.9722 95.7236 28.0778C95.6147 28.1834 95.5059 28.1834 95.397 28.1834H92.2406C92.1317 28.1834 92.0229 28.1834 91.914 28.0778C91.8052 27.9722 91.8052 27.8666 91.8052 27.761V18.3626H89.7371C89.6283 18.3626 89.5194 18.3626 89.4106 18.257C89.3018 18.1514 89.3018 18.0458 89.3018 17.9402V15.617C89.3018 15.5114 89.3018 15.4058 89.4106 15.3002C89.5194 15.3002 89.6283 15.3002 89.7371 15.3002H91.8052V12.0266C91.8052 11.921 91.8052 11.8154 91.914 11.7098C92.0229 11.6042 92.1317 11.6042 92.2406 11.6042H95.397C95.5059 11.6042 95.6147 11.6042 95.7236 11.7098C95.8324 11.8154 95.8324 11.921 95.8324 12.0266V15.3002H97.9005Z" fill="white"/>
<path d="M88.8642 21.5314C88.8642 22.0594 88.7554 22.4818 88.6465 22.7986C88.5377 23.0098 88.32 23.1154 87.8846 23.1154H80.0478C80.2655 23.8546 80.5921 24.3826 81.1363 24.6994C81.6805 25.0162 82.4424 25.2274 83.3132 25.2274C83.7485 25.2274 84.1839 25.2274 84.5105 25.1218C84.9458 25.0162 85.3812 24.805 85.8166 24.4882C85.9254 24.3826 86.0343 24.3826 86.1431 24.3826C86.252 24.3826 86.3608 24.3826 86.4697 24.4882L87.8846 25.7554C87.9935 25.861 87.9935 25.861 87.9935 25.9666C87.9935 26.0722 87.9935 26.1778 87.8846 26.2834C87.2316 26.917 86.5785 27.3394 85.7077 27.7618C84.9458 28.0786 84.0751 28.2898 83.0955 28.2898C81.7893 28.2898 80.5921 27.973 79.5036 27.445C78.524 26.8114 77.6533 26.0722 77.109 25.0162C76.5648 24.0658 76.2383 22.9042 76.2383 21.7426C76.2383 20.581 76.5648 19.4194 77.109 18.469C77.6533 17.5186 78.524 16.6738 79.5036 16.1458C80.4832 15.5122 81.5717 15.301 82.8778 15.301C84.0751 15.301 85.1635 15.6178 86.0343 16.1458C87.0139 16.6738 87.6669 17.5186 88.2112 18.469C88.6465 19.3138 88.8642 20.3698 88.8642 21.5314ZM82.7689 18.469C82.1159 18.469 81.4628 18.6802 81.0274 18.997C80.4832 19.3138 80.2655 19.8418 80.0478 20.581H85.3812C85.2724 19.8418 84.9458 19.3138 84.5105 18.997C83.9662 18.6802 83.422 18.469 82.7689 18.469Z" fill="white"/>
<path d="M74.4978 15.5116C74.6066 15.5116 74.7155 15.5116 74.8243 15.6172C74.9331 15.7228 74.9331 15.8284 74.9331 15.934V28.078C74.9331 29.3452 74.6066 30.4012 73.8447 31.1404C73.1916 31.9852 72.3209 32.5132 71.2324 32.83C70.144 33.0412 69.1644 33.2524 67.9671 33.2524C66.8787 33.2524 65.7902 33.1468 64.8106 32.83C63.831 32.5132 62.9603 32.0908 62.3072 31.6684C62.1983 31.5628 62.1983 31.4572 62.1983 31.3516C62.1983 31.246 62.1983 31.1404 62.1983 31.1404L63.1779 29.3452C63.2868 29.2396 63.3956 29.134 63.5045 29.134C63.6133 29.134 63.6133 29.134 63.7222 29.134C64.2664 29.4508 64.9195 29.7676 65.5725 29.8732C66.2256 29.9788 66.8787 30.0844 67.7494 30.0844C68.6202 30.0844 69.4909 29.8732 70.144 29.5564C70.9059 29.2396 71.2324 28.606 71.2324 27.7612V26.5996C70.2528 27.7612 68.9467 28.2892 67.4229 28.2892C66.2256 28.2892 65.1371 27.9724 64.2664 27.4444C63.2868 26.8108 62.5249 26.0716 61.9807 25.0156C61.4364 24.0652 61.2188 22.9036 61.2188 21.742C61.2188 20.5804 61.4364 19.5244 61.9807 18.4684C62.6337 17.4124 63.2868 16.6732 64.2664 16.0396C65.246 15.406 66.2256 15.1948 67.4229 15.1948C68.8379 15.1948 70.0351 15.7228 71.1236 16.8844L71.2324 15.8284C71.2324 15.6172 71.4501 15.406 71.6678 15.406H74.4978V15.5116ZM67.9671 24.6988C68.729 24.6988 69.4909 24.382 70.0351 23.7484C70.5794 23.1148 70.9059 22.4812 70.9059 21.6364C70.9059 20.7916 70.5794 20.158 70.0351 19.5244C69.4909 18.8908 68.8379 18.574 67.9671 18.574C67.0963 18.574 66.4433 18.8908 65.8991 19.4188C65.3548 19.9468 65.0283 20.686 65.0283 21.5308C65.0283 22.3756 65.246 23.1148 65.7902 23.6428C66.4433 24.382 67.0963 24.6988 67.9671 24.6988Z" fill="white"/>
<path d="M59.9122 15.3002C60.021 15.3002 60.1299 15.3002 60.2387 15.4058C60.3476 15.5114 60.3476 15.617 60.3476 15.7226V18.0458C60.3476 18.1514 60.3476 18.257 60.2387 18.3626C60.1299 18.4682 60.021 18.4682 59.9122 18.4682H57.8441V27.761C57.8441 27.8666 57.8441 27.9722 57.7353 28.0778C57.6265 28.1834 57.5176 28.1834 57.4088 28.1834H54.2523C54.1434 28.1834 54.0346 28.1834 53.9257 28.0778C53.9257 27.9722 53.9257 27.8666 53.9257 27.761V18.3626H51.7489C51.64 18.3626 51.5312 18.3626 51.4223 18.257C51.3135 18.1514 51.3135 18.0458 51.3135 17.9402V15.617C51.3135 15.5114 51.3135 15.4058 51.4223 15.3002C51.5312 15.3002 51.64 15.3002 51.7489 15.3002H53.9257V12.0266C53.9257 11.921 53.9257 11.8154 54.0346 11.7098C54.1434 11.6042 54.2523 11.6042 54.3611 11.6042H57.5176C57.6265 11.6042 57.7353 11.6042 57.8441 11.7098C57.953 11.8154 57.953 11.921 57.953 12.0266V15.3002H59.9122Z" fill="white"/>
<path d="M47.9391 14.2445C47.3949 14.2445 46.8507 14.0333 46.4153 13.6109C46.0888 13.1885 45.8711 12.7661 45.8711 12.1325C45.8711 11.4989 46.0888 11.0765 46.5242 10.6541C46.8507 10.2317 47.3949 10.0205 47.9391 10.0205C48.4834 10.0205 49.0276 10.2317 49.463 10.6541C49.8983 11.0765 50.116 11.6045 50.116 12.1325C50.116 12.6605 49.8983 13.1885 49.463 13.6109C49.0276 14.0333 48.5922 14.2445 47.9391 14.2445ZM45.9799 15.6173C45.9799 15.5117 45.9799 15.4061 46.0888 15.3005C46.1976 15.3005 46.3065 15.3005 46.4153 15.3005H49.5718C49.6806 15.3005 49.7895 15.3005 49.8983 15.4061C50.0072 15.5117 50.0072 15.6173 50.0072 15.7229V27.7613C50.0072 27.8669 50.0072 27.9725 49.8983 28.0781C49.7895 28.1837 49.6806 28.1837 49.5718 28.1837H46.4153C46.3065 28.1837 46.1976 28.1837 46.0888 28.0781C45.9799 27.9725 45.9799 27.8669 45.9799 27.7613V15.6173Z" fill="white"/>
<path d="M40.9731 18.4685C41.9527 18.6797 42.8235 19.2077 43.4765 20.0525C44.2384 20.8973 44.565 21.8477 44.565 22.9037C44.565 24.5933 44.0208 25.9661 42.8235 26.8109C41.735 27.6557 39.9935 28.0781 37.7078 28.0781H31.286C31.1771 28.0781 31.0683 28.0781 30.9594 27.9725C30.8506 27.8669 30.8506 27.7613 30.8506 27.6557V10.4429C30.8506 10.3373 30.8506 10.2317 30.9594 10.1261C30.9594 10.1261 31.0683 10.0205 31.1771 10.0205H37.5989C38.7962 10.0205 39.7758 10.2317 40.5377 10.6541C41.4085 11.0765 42.0616 11.6045 42.3881 12.3437C42.8235 13.0829 43.0412 13.8221 43.0412 14.7725C43.0412 15.6173 42.8235 16.4621 42.3881 17.0957C42.0616 17.7293 41.5173 18.2573 40.9731 18.4685ZM39.3404 15.3005C39.3404 14.2445 38.6874 13.6109 37.2724 13.6109H34.8778V17.0957H37.2724C37.9255 17.0957 38.4697 16.9901 38.7962 16.6733C39.1228 16.3565 39.3404 15.8285 39.3404 15.3005ZM37.8166 24.5933C38.5785 24.5933 39.2316 24.3821 39.7758 24.0653C40.2112 23.7485 40.5377 23.1149 40.5377 22.4813C40.5377 21.7421 40.32 21.2141 39.7758 20.8973C39.3405 20.5805 38.6874 20.3693 37.8166 20.3693H34.8778V24.5933H37.8166Z" fill="white"/>
<path d="M8.32043 8.43693C8.64697 8.12013 9.08234 7.90894 9.51772 7.90894H12.6742C13.1096 7.90894 13.3273 8.33133 13.0007 8.64813L6.79661 15.1953H10.2796L13.7627 18.7857H6.79661L13.7627 26.0721H9.51772C9.08234 26.0721 8.53812 25.8609 8.21159 25.5441L1.1367 18.1521C0.592479 17.5185 0.592479 16.4625 1.24555 15.8289L8.32043 8.43693Z" fill="white"/>
<path d="M18.0067 32.725C17.6801 33.0418 17.2448 33.253 16.7005 33.253H13.5441C13.1087 33.253 12.891 32.8306 13.2175 32.5138L19.5305 25.9666H16.0475L12.5645 22.3762H19.5305L12.5645 15.0898H16.8094C17.2448 15.0898 17.789 15.301 18.1155 15.6178L25.1904 23.0098C25.8435 23.6434 25.8435 24.6994 25.1904 25.333L18.0067 32.725Z" fill="white"/>
</svg>
