<svg width="123" height="40" viewBox="0 0 123 40" fill="none" xmlns="http://www.w3.org/2000/svg">
<g opacity="0.4">
<path d="M45.0269 17.0379H43.2656L40.165 27.7659H43.6004L46.2205 18.7083C46.3661 18.3195 46.3079 17.8731 46.0604 17.5275C45.8275 17.2107 45.4345 17.0235 45.0269 17.0379Z" fill="white"/>
<path d="M47.4296 14.634C47.1239 15.5988 46.236 16.2756 45.217 16.3332C44.5183 16.362 43.9361 15.8436 43.907 15.1524C43.8924 14.9796 43.9215 14.7924 43.9943 14.634C44.3 13.6692 45.1879 12.9925 46.2069 12.9349C46.629 12.9061 47.0366 13.1076 47.2986 13.4532C47.4151 13.626 47.5024 13.8276 47.517 14.0292C47.5315 14.2308 47.5024 14.4324 47.4296 14.634Z" fill="white"/>
<path d="M61.4779 16.4628C60.7938 16.4628 60.1242 16.5924 59.4982 16.8372C59.1926 16.9668 58.916 17.1396 58.6394 17.3268L59.4255 14.5909C59.5565 14.2021 59.5128 13.7557 59.2653 13.4245C59.1489 13.2661 58.9888 13.1365 58.8141 13.0501C58.6394 12.9637 58.4356 12.9205 58.2318 12.9349H56.5433L52.2637 27.7668H55.6117L57.2565 22.0644C57.4312 21.3156 57.8097 20.6388 58.3483 20.0916C58.7559 19.674 59.3236 19.4292 59.9058 19.4436C60.3716 19.4004 60.8229 19.6596 61.0121 20.0916C61.2159 20.7396 61.1868 21.4308 60.9539 22.0644L59.3236 27.7524H62.7152L64.331 22.1796C64.8259 20.8404 64.8114 19.3716 64.2873 18.0612C63.7633 17.01 62.657 16.3908 61.4779 16.4628Z" fill="white"/>
<path d="M91.9996 16.4336C90.413 16.4048 88.8554 16.8512 87.5308 17.7152C86.9485 16.8512 85.9587 16.376 84.9106 16.448C84.2265 16.448 83.5569 16.5776 82.931 16.8224C82.567 16.9808 82.2177 17.1968 81.8974 17.4416C81.8101 16.8368 81.257 16.4048 80.6456 16.448H78.9716L75.7109 27.752H79.0589L80.7184 22.0352C80.893 21.2864 81.2715 20.6096 81.8101 20.0624C82.0139 19.8608 82.2468 19.688 82.5234 19.5728C82.7854 19.4576 83.0765 19.4 83.3676 19.4144C83.6005 19.3856 83.8335 19.4432 84.0227 19.5584C84.2119 19.6736 84.372 19.8608 84.4594 20.0624C84.6632 20.7104 84.6341 21.4016 84.4012 22.0352L82.7563 27.752H86.1479L87.8074 22.0352C87.982 21.3008 88.3605 20.6096 88.8991 20.0624C89.3067 19.6448 89.8744 19.4 90.4567 19.4144C90.937 19.3712 91.3737 19.6304 91.5629 20.0624C91.7667 20.7104 91.7376 21.4016 91.5047 22.0352L89.8453 27.752H93.2369L94.8527 22.1504C95.3476 20.8112 95.3331 19.3424 94.809 18.032C94.2996 16.9808 93.1787 16.3472 91.9996 16.4336Z" fill="white"/>
<path d="M65.2893 22.8853L67.1526 16.4341H70.5442L68.681 22.8853C68.1279 24.7861 69.9329 24.7861 69.9329 24.7861C71.0828 24.7717 72.0727 23.9941 72.3638 22.8853L74.227 16.4341H77.575L75.7118 22.8853C74.8821 25.8229 72.1454 27.8245 69.074 27.7525C69.074 27.7525 63.79 28.0981 65.2893 22.8853Z" fill="white"/>
<path d="M106.382 22.166C106.876 20.8268 106.862 19.358 106.338 18.0476C105.814 16.9964 104.708 16.3772 103.543 16.4636C102.859 16.4492 102.189 16.5788 101.563 16.838C101.258 16.9676 100.981 17.126 100.705 17.3276L101.491 14.606C101.622 14.2172 101.578 13.7852 101.33 13.4396C101.214 13.2812 101.054 13.1516 100.865 13.0652C100.69 12.9788 100.486 12.9356 100.282 12.95H98.6084L95.7699 22.7996C94.2123 28.1852 99.7147 27.782 99.7147 27.782C99.7147 27.782 104.737 27.8684 106.382 22.166ZM103.019 22.0508C102.83 22.8284 102.451 23.5484 101.898 24.1388C101.694 24.3548 101.461 24.5132 101.185 24.6284C100.923 24.7436 100.632 24.8012 100.341 24.7868C99.8603 24.8444 99.3944 24.5708 99.2052 24.1244C99.016 23.4332 99.0742 22.6988 99.3362 22.0364C99.5109 21.2876 99.8894 20.6108 100.428 20.0636C100.836 19.646 101.403 19.4012 101.986 19.4156C102.451 19.3724 102.903 19.6316 103.092 20.0636C103.281 20.726 103.266 21.4172 103.019 22.0508Z" fill="white"/>
<path d="M52.4376 14.5911C52.5103 14.4039 52.5249 14.1879 52.4958 13.9863C52.4667 13.7847 52.3939 13.5831 52.2774 13.4103C52.0445 13.0935 51.6661 12.9063 51.273 12.9207H49.5263L45.9162 25.4487C45.4213 27.1767 46.2802 27.6087 47.0953 27.6807C47.6776 27.7239 48.3617 27.7527 49.0313 27.7527C49.468 27.7527 49.8902 27.7383 50.2395 27.7239L50.5889 27.7095L51.3604 25.0311H49.8465C49.4389 25.0311 49.4826 24.8871 49.5117 24.7431L51.0692 19.3287H51.4914C51.9717 19.3143 52.423 19.1559 52.8015 18.8679C53.209 18.5799 53.5002 18.1479 53.6457 17.6727L53.9078 16.7799H51.8116L52.4376 14.5911Z" fill="white"/>
<path d="M40.5886 22.166C41.0835 20.8268 41.069 19.358 40.5449 18.0476C40.0209 17.0108 38.9146 16.3772 37.7501 16.4636C37.0659 16.4492 36.3963 16.5788 35.7704 16.838C35.4647 16.9676 35.1881 17.126 34.9116 17.3276L35.6976 14.606C35.8286 14.2172 35.785 13.7852 35.5375 13.4396C35.421 13.2812 35.2609 13.1516 35.0862 13.0652C34.9116 12.9788 34.7078 12.9356 34.504 12.95H32.8154L29.9769 22.7996C28.4194 28.1852 33.9217 27.782 33.9217 27.782C33.9217 27.782 38.9292 27.8684 40.5886 22.166ZM37.226 22.0508C37.0368 22.8284 36.6583 23.5484 36.1052 24.1388C35.6976 24.5564 35.1299 24.8012 34.5477 24.7868C34.0673 24.8444 33.6015 24.5708 33.3977 24.1244C33.2085 23.4332 33.2667 22.6988 33.5287 22.0364C33.7034 21.2876 34.0818 20.6108 34.6204 20.0636C35.028 19.646 35.5957 19.4012 36.178 19.4156C36.6438 19.3724 37.095 19.6316 37.2843 20.0636C37.4881 20.726 37.4735 21.4172 37.226 22.0508Z" fill="white"/>
<path d="M0.195406 17.3273C-0.328627 18.5225 0.239076 19.9193 1.44726 20.4233C1.78206 20.5673 2.14598 20.6249 2.52444 20.6105H3.36872L5.77054 12.3018H1.66561L0.195406 17.3273Z" fill="white"/>
<path d="M22.8748 15.5121C21.7685 13.3234 19.8325 12.2722 17.0958 12.2722H12.0011L9.61382 20.6241H13.2384C13.8206 20.5377 14.3883 20.8401 14.6212 21.3729C14.8833 22.1793 14.8542 23.0577 14.5485 23.8641C14.3156 24.8433 13.8352 25.7505 13.151 26.4993C12.6416 27.0321 11.9429 27.3345 11.2005 27.3201C10.5891 27.3921 10.0068 27.0465 9.77394 26.4849C9.54103 25.6209 9.59926 24.6993 9.93406 23.8641L14.3738 8.36976C14.6649 7.54896 14.5485 6.65617 14.0535 5.93617C13.5586 5.25937 12.7435 4.88497 11.8992 4.92817H6.96454L1.11283 25.3329C-2.0896 36.4929 9.24991 35.6721 9.24991 35.6721C9.24991 35.6721 19.5705 35.9025 22.9767 24.0657C23.9665 20.5809 23.9374 17.7009 22.8748 15.5121Z" fill="white"/>
<path d="M22.9723 24.0226C23.9767 20.5666 23.9476 17.701 22.8704 15.5266C21.7641 13.3522 19.8281 12.3154 17.0915 12.3154H13.2486L10.8613 20.6242H13.2195C13.8017 20.5378 14.3694 20.8402 14.6023 21.3586C14.8644 22.165 14.8352 23.029 14.5296 23.821" fill="white"/>
</g>
</svg>
