<svg width="123" height="40" viewBox="0 0 123 40" fill="none" xmlns="http://www.w3.org/2000/svg">
<path d="M9.11615 13.1113H19.04C19.034 13.2391 18.9886 13.3622 18.9098 13.4646C18.5739 14.0255 18.2715 14.6093 17.9414 15.1702C17.4745 15.9755 17.0377 16.7956 16.5632 17.5977C16.2626 18.175 15.9232 18.7343 15.6024 19.3017C13.6741 19.3017 11.7458 19.3017 9.81744 19.3017C9.71665 19.3017 9.61671 19.3066 9.51593 19.3123C9.43194 19.5282 9.29252 19.7171 9.17998 19.9199C9.03301 20.1521 8.91374 20.3998 8.76845 20.632C8.61475 20.9444 8.40227 21.224 8.24773 21.5355C7.92859 22.0629 7.63043 22.5985 7.318 23.1316C6.99214 23.6767 6.67355 24.2294 6.36224 24.7898C6.23049 24.9884 6.10912 25.1933 5.99858 25.4038C5.346 26.5093 4.71443 27.6245 4.06101 28.7292C4.00559 28.8479 3.93259 28.9581 3.84433 29.0562C2.72731 29.0489 1.61029 29.0562 0.493271 29.0562C0.355693 29.0588 0.218931 29.0774 0.0859375 29.1118C0.0859375 28.8109 0.292544 28.5697 0.431961 28.3171C0.599934 27.9778 0.824178 27.663 0.99299 27.3228C2.33173 24.9909 3.6562 22.6508 4.99074 20.3172C5.29309 19.8103 5.55261 19.2927 5.85664 18.7956C6.23626 18.1415 6.58984 17.4726 6.98542 16.8259C7.1114 16.5552 7.28105 16.3075 7.41963 16.0434C7.91179 15.1906 8.39471 14.3329 8.88519 13.4801C8.94338 13.3469 9.02118 13.2227 9.11615 13.1113Z" fill="white"/>
<path d="M20.615 16.5437C21.2759 15.4195 21.9142 14.2829 22.5844 13.1636H26.169C26.2212 13.1661 26.273 13.1741 26.3235 13.1873C26.2043 13.3631 26.1043 13.5495 25.9993 13.7327C25.1348 15.2431 24.2729 16.7544 23.4134 18.2665C23.0522 18.8822 22.7163 19.5118 22.3501 20.1242L22.314 20.1365L22.3073 20.2133C20.622 23.1568 18.9422 26.1025 17.2681 29.0504C13.9775 29.0537 10.6867 29.0537 7.39551 29.0504C7.5828 28.6694 7.80452 28.3055 8.01281 27.9352C8.9501 26.2573 9.91174 24.5943 10.8356 22.9164C12.8574 22.9132 14.8793 22.9132 16.9011 22.9164C18.15 20.7987 19.372 18.6647 20.6116 16.5437H20.615Z" fill="white"/>
<path d="M57.6064 13.1196V29.2436H60.4763V17.9053L65.7111 25.3729L70.904 17.7279V29.2436H73.8578V13.1196H70.6806L65.7321 20.5627L60.7282 13.1196H57.6064Z" fill="white"/>
<path d="M44.1836 17.2795H46.059V29.3807H44.1836V17.2795Z" fill="white"/>
<path d="M44.0244 12.7957H46.2223V14.8259H44.0244V12.7957Z" fill="white"/>
<path d="M49.6422 13.811H51.6016V17.2787H55.465V18.9687H51.6016V26.1575C51.5983 26.4345 51.6643 26.7081 51.794 26.9547C52.1257 27.5679 53.0269 28.2956 55.465 27.4453V29.0119C55.465 29.0119 53.2394 30.2383 51.2237 29.1214C51.2237 29.1214 50.2226 28.7077 49.8018 27.3112C49.6925 26.9371 49.6388 26.5497 49.6422 26.1607V18.9418L47.9902 18.9687V17.2787H49.6557L49.6422 13.811Z" fill="white"/>
<path d="M76.8818 13.1196V29.3523H89.3395V26.7359H79.9196V22.4293H88.22V19.8538H79.9053V15.7524H89.2421V13.1196H76.8818Z" fill="white"/>
<path d="M90.5083 13.1196H94.0567L98.1301 18.8186L102.171 13.1196H105.72L99.9249 21.0361L106.081 29.3384H102.344L98.1443 23.2748L93.7418 29.3523H90.1934L96.2614 21.108L90.5083 13.1196Z" fill="white"/>
<path d="M38.443 20.9308C38.443 20.9308 41.1868 19.9227 41.0189 17.02C41.0189 17.02 40.9962 14.2286 37.7677 13.3668C37.231 13.2268 36.6773 13.1575 36.1216 13.1608H28.3789L28.3999 29.2847H36.7355C36.7355 29.2847 41.6135 29.1825 41.957 24.9512C41.957 24.9512 42.3064 21.9938 38.443 20.9308ZM30.3803 14.8255H35.3221C39.1989 14.8124 39.0872 17.4697 39.0872 17.4697C39.1451 20.5016 35.5875 20.4402 35.5875 20.4402H30.3803V14.8255ZM36.4273 27.5807H30.3803V21.9668H36.1619C40.0387 21.9529 39.927 24.6102 39.927 24.6102C39.985 27.6421 36.4273 27.5807 36.4273 27.5807Z" fill="white"/>
</svg>
