<svg width="123" height="40" viewBox="0 0 123 40" fill="none" xmlns="http://www.w3.org/2000/svg">
<path d="M61.874 25.4321V4.79834H66.1376V25.4321H61.874Z" fill="white"/>
<path d="M12.2141 31.5605H3.08105V10.9268H11.8438C16.1074 10.9268 18.587 13.1878 18.587 16.7269C18.587 19.0208 16.9938 20.4954 15.8942 20.9869C17.2069 21.5659 18.9011 22.8657 18.9011 25.6292C18.9011 29.4742 16.1074 31.5605 12.2141 31.5605ZM11.5184 14.5205H7.35585V19.272H11.5184C13.3248 19.272 14.3346 18.3108 14.3346 16.8908C14.3346 15.4708 13.3248 14.5205 11.5184 14.5205ZM11.7877 22.8876H7.34463V27.9559H11.7877C13.7175 27.9559 14.6376 26.798 14.6376 25.3999C14.6376 24.0017 13.7175 22.8876 11.7877 22.8876Z" fill="white"/>
<path d="M31.8971 23.0951V31.5605H27.6672V23.0951L21.1035 10.9268H25.7261L29.799 19.2392L33.8157 10.9268H38.4383L31.8971 23.0951Z" fill="white"/>
<path d="M50.5324 31.5605H41.3994V10.9268H50.1622C54.4257 10.9268 56.9053 13.1878 56.9053 16.7269C56.9053 19.0208 55.3121 20.4954 54.2126 20.9869C55.5253 21.5659 57.2195 22.8657 57.2195 25.6292C57.2083 29.4742 54.4257 31.5605 50.5324 31.5605ZM49.8256 14.5205H45.663V19.272H49.8256C51.632 19.272 52.6418 18.3108 52.6418 16.8908C52.6418 15.4708 51.632 14.5205 49.8256 14.5205ZM50.0949 22.8876H45.6518V27.9559H50.0949C52.0247 27.9559 52.9447 26.798 52.9447 25.3999C52.9447 24.0017 52.0359 22.8876 50.0949 22.8876Z" fill="white"/>
<path d="M79.8613 14.5205V31.5605H75.5977V14.5205H69.9092V10.9268H85.561V14.5205H79.8613Z" fill="white"/>
</svg>
