<svg width="240" height="42" viewBox="0 0 240 42" fill="none" xmlns="http://www.w3.org/2000/svg">
<g clip-path="url(#clip0_2323_43528)">
<path fill-rule="evenodd" clip-rule="evenodd" d="M35.624 24.9834C34.909 25.4354 34.067 25.4914 33.427 25.1304C32.614 24.6714 32.167 23.5964 32.167 22.1014V17.6284C32.167 15.4684 31.313 13.9314 29.885 13.5164C27.465 12.8114 25.645 15.7724 24.961 16.8844L20.693 23.8044V15.3464C20.645 13.4004 20.013 12.2364 18.813 11.8854C18.019 11.6534 16.831 11.7464 15.677 13.5124L6.115 28.8664C4.83488 26.4362 4.16755 23.7301 4.171 20.9834C4.171 11.7344 11.583 4.2104 20.693 4.2104C29.803 4.2104 37.214 11.7344 37.214 20.9834C37.214 20.9994 37.218 21.0134 37.219 21.0284C37.219 21.0444 37.216 21.0584 37.217 21.0744C37.303 22.8654 36.723 24.2894 35.624 24.9834ZM40.885 20.9844V20.9374L40.884 20.8914C40.833 9.6274 31.796 0.483398 20.692 0.483398C9.559 0.483398 0.5 9.6794 0.5 20.9834C0.5 32.2864 9.559 41.4834 20.693 41.4834C25.802 41.4834 30.678 39.5414 34.421 36.0164C35.165 35.3164 35.209 34.1374 34.519 33.3834C34.3566 33.2043 34.1601 33.0594 33.941 32.9573C33.7219 32.8551 33.4846 32.7976 33.243 32.7883C33.0014 32.779 32.7604 32.818 32.5341 32.903C32.3078 32.988 32.1007 33.1173 31.925 33.2834C28.8911 36.1564 24.8714 37.7572 20.693 37.7564C15.815 37.7564 11.426 35.5974 8.399 32.1734L17.022 18.3274V24.7104C17.022 27.7764 18.211 28.7674 19.208 29.0574C20.206 29.3474 21.731 29.1494 23.332 26.5494L28.075 18.8604C28.227 18.6124 28.367 18.3984 28.495 18.2134V22.1014C28.495 24.9674 29.643 27.2594 31.644 28.3884C33.448 29.4064 35.716 29.3144 37.564 28.1484C39.804 26.7334 41.011 24.1264 40.885 20.9844ZM68.998 13.9804C69.483 14.2754 69.903 14.9314 69.903 15.5224C69.903 16.4734 69.095 17.2604 68.19 17.2604C67.964 17.2604 67.738 17.1954 67.544 17.1294C66.477 16.3424 65.12 15.8174 63.698 15.8174C60.338 15.8174 58.011 18.5724 58.011 21.9834C58.011 25.3954 60.338 28.1174 63.698 28.1174C65.378 28.1174 66.865 27.4284 67.996 26.3794C68.2882 26.1694 68.6382 26.0548 68.998 26.0514C69.903 26.0514 70.614 26.7724 70.614 27.6914C70.614 28.2814 70.258 28.8064 69.806 29.1014C68.19 30.4794 65.993 31.3974 63.731 31.3974C58.561 31.3974 54.359 27.1334 54.359 21.8854C54.359 16.6374 58.56 12.3734 63.731 12.3734C65.67 12.3734 67.511 12.9634 68.998 13.9804ZM78.452 17.9494C81.974 17.9494 84.947 20.9344 84.947 24.6074C84.947 28.2814 81.974 31.3974 78.452 31.3974C74.768 31.3974 71.698 28.2814 71.698 24.6074C71.698 20.9344 74.768 17.9494 78.452 17.9494ZM78.419 28.1174C79.971 28.1174 81.295 26.6414 81.295 24.6404C81.295 22.6404 79.971 21.3934 78.419 21.3934C76.739 21.3934 75.349 22.6074 75.349 24.6404C75.349 26.6414 76.739 28.1174 78.419 28.1174ZM87.162 29.3634V19.9834C87.162 18.9664 87.97 18.1134 88.972 18.1134C89.974 18.1134 90.814 18.9664 90.814 19.9834V29.3634C90.814 30.3804 89.974 31.2334 88.972 31.2334C87.97 31.2334 87.162 30.3804 87.162 29.3634ZM86.872 14.5714C86.872 13.3574 87.808 12.3734 88.972 12.3734C90.167 12.3734 91.137 13.3574 91.137 14.5714C91.137 15.7514 90.167 16.7034 88.972 16.7034C87.808 16.7034 86.872 15.7514 86.872 14.5714ZM97.812 24.2794V29.3634C97.812 30.3804 96.972 31.2334 95.969 31.2334C94.968 31.2334 94.159 30.3804 94.159 29.3634V19.5564C94.159 18.7694 94.806 18.1134 95.582 18.1134C96.357 18.1134 96.972 18.7694 96.972 19.5564C98.458 18.1794 99.75 17.9494 100.978 17.9494C104.63 17.9494 106.246 20.7044 106.246 23.8204V29.3634C106.246 30.3804 105.406 31.2334 104.404 31.2334C103.402 31.2334 102.594 30.3804 102.594 29.3634V24.2794C102.594 22.6724 102.4 21.3274 100.106 21.3274C98.49 21.3274 97.812 22.6724 97.812 24.2794ZM118.123 26.2154C117.703 26.2154 117.413 26.0184 117.186 25.7554L112.92 21.1314V29.3634C112.92 30.3804 112.08 31.2334 111.078 31.2334C110.076 31.2334 109.268 30.3804 109.268 29.3634V13.0634C109.32 12.9261 109.414 12.8082 109.535 12.7259C109.657 12.6436 109.801 12.6008 109.948 12.6034C110.27 12.6034 110.528 12.8664 110.723 13.0634L117.509 20.7054C117.703 20.9354 117.961 21.0664 118.091 21.0664C118.22 21.0664 118.478 20.9354 118.672 20.7064L125.459 13.0634C125.653 12.8664 125.911 12.6034 126.234 12.6034C126.557 12.6034 126.816 12.8004 126.913 13.0634V29.3634C126.913 30.3804 126.105 31.2334 125.103 31.2334C124.101 31.2334 123.261 30.3804 123.261 29.3634V21.1314L118.996 25.7554C118.769 26.0184 118.478 26.2154 118.123 26.2154ZM135.688 28.1174C137.336 28.1174 138.725 26.6414 138.725 24.6404C138.725 22.6404 137.304 21.3274 135.688 21.3274C134.072 21.3274 132.779 22.6724 132.779 24.6404C132.779 26.5754 134.072 28.1174 135.688 28.1174ZM139.566 29.7904L139.5 29.3634C138.79 30.7734 136.527 31.3974 135.073 31.3974C131.647 31.3974 129.127 28.2814 129.127 24.6074C129.127 20.9344 131.712 17.9494 135.267 17.9494C135.881 17.9494 137.917 18.1134 139.5 19.9834L139.565 19.5564C139.565 18.7694 140.179 18.1134 140.955 18.1134C141.73 18.1134 142.376 18.7694 142.376 19.5564V29.7904C142.376 30.5774 141.73 31.2334 140.954 31.2334C140.179 31.2334 139.564 30.5774 139.564 29.7904H139.566ZM152.509 21.3274H152.122C149.827 21.4594 149.375 22.7714 149.375 24.2794V29.3634C149.375 30.3804 148.535 31.2334 147.533 31.2334C146.531 31.2334 145.723 30.3804 145.723 29.3634V19.5564C145.723 18.7694 146.369 18.1134 147.145 18.1134C147.921 18.1134 148.535 18.7694 148.535 19.5564C149.892 18.2774 150.991 18.0154 152.122 17.9494H152.477C153.35 17.9494 154.157 18.7034 154.157 19.6554C154.157 20.5404 153.382 21.3274 152.509 21.3274ZM166.584 28.5114C166.746 28.7734 166.843 29.0684 166.843 29.3964C166.843 30.3474 165.97 31.2334 165.033 31.2334C164.387 31.2334 163.837 30.7414 163.417 30.2164L159.217 25.3294V29.3634C159.217 30.3804 158.376 31.2334 157.374 31.2334C156.372 31.2334 155.564 30.3804 155.564 29.3634V14.4734C155.564 13.4554 156.372 12.6034 157.374 12.6034C158.376 12.6034 159.216 13.4554 159.216 14.4734V23.7554L163.417 19.0974C163.837 18.6054 164.354 18.1134 165.001 18.1134C165.906 18.1134 166.746 18.9664 166.746 19.9174C166.746 20.2124 166.681 20.5074 166.519 20.7704L163.191 24.4104L166.584 28.5114ZM173.744 21.3934C172.742 21.3934 171.126 21.9184 171.126 23.4594H176.393C176.393 21.8854 174.713 21.3934 173.743 21.3934H173.744ZM178.526 25.7884H171.126C171.126 27.9864 173.226 28.3144 174.163 28.3144C174.843 28.3144 175.812 28.1834 176.555 27.8544C176.781 27.6914 177.169 27.5594 177.492 27.5594C178.3 27.5594 178.978 28.2494 178.978 29.0694C178.978 29.6264 178.623 30.1184 178.171 30.3804C177.04 31.2004 175.585 31.3974 174.196 31.3974C170.512 31.3974 167.442 29.3974 167.442 24.7714C167.442 21.1314 169.316 17.9494 173.679 17.9494C177.201 17.9494 179.883 20.2454 179.948 24.3454C179.948 25.1324 179.302 25.7884 178.526 25.7884ZM188.691 31.3974H187.689C184.909 31.3974 183.294 30.1834 183.294 25.8214V21.3274H182.357C181.484 21.3274 180.709 20.5404 180.709 19.6554C180.709 18.7034 181.484 17.9494 182.357 17.9494H183.294V14.4724C183.294 13.4554 184.102 12.6024 185.104 12.6024C186.105 12.6024 186.946 13.4554 186.946 14.4724V17.9494H188.464C189.337 17.9494 190.113 18.7034 190.113 19.6554C190.113 20.5404 189.337 21.3274 188.464 21.3274H186.946V25.0994C186.946 27.5924 187.075 28.1174 188.174 28.1174H188.691C189.563 28.1174 190.306 28.8394 190.306 29.7574C190.306 30.6434 189.563 31.3974 188.691 31.3974ZM206.385 13.9804C206.869 14.2754 207.29 14.9314 207.29 15.5224C207.29 16.4734 206.482 17.2604 205.577 17.2604C205.351 17.2604 205.124 17.1954 204.931 17.1294C203.864 16.3424 202.507 15.8174 201.085 15.8174C197.725 15.8174 195.397 18.5724 195.397 21.9834C195.397 25.3954 197.724 28.1174 201.085 28.1174C202.765 28.1174 204.252 27.4284 205.383 26.3794C205.675 26.1694 206.025 26.0548 206.385 26.0514C207.29 26.0514 208 26.7724 208 27.6914C208 28.2814 207.645 28.8064 207.193 29.1014C205.577 30.4794 203.379 31.3974 201.117 31.3974C195.947 31.3974 191.746 27.1334 191.746 21.8854C191.746 16.6374 195.946 12.3734 201.117 12.3734C203.057 12.3734 204.898 12.9634 206.385 13.9804ZM215.645 28.1174C217.293 28.1174 218.682 26.6414 218.682 24.6404C218.682 22.6404 217.26 21.3274 215.644 21.3274C214.029 21.3274 212.736 22.6724 212.736 24.6404C212.736 26.5754 214.029 28.1174 215.644 28.1174H215.645ZM219.522 29.7904L219.458 29.3634C218.747 30.7734 216.485 31.3974 215.03 31.3974C211.605 31.3974 209.084 28.2814 209.084 24.6074C209.084 20.9344 211.67 17.9494 215.224 17.9494C215.838 17.9494 217.874 18.1134 219.458 19.9834L219.522 19.5564C219.522 18.7694 220.136 18.1134 220.912 18.1134C221.687 18.1134 222.334 18.7694 222.334 19.5564V29.7904C222.334 30.5774 221.687 31.2334 220.912 31.2334C220.136 31.2334 219.522 30.5774 219.522 29.7904ZM232.369 28.1174C233.985 28.1174 235.277 26.5754 235.277 24.6404C235.277 22.6724 233.985 21.3274 232.369 21.3274C230.753 21.3274 229.331 22.6394 229.331 24.6404C229.331 26.6414 230.721 28.1174 232.369 28.1174ZM229.331 30.3154V34.9724C229.331 35.9894 228.491 36.8424 227.489 36.8424C226.488 36.8424 225.679 35.9894 225.679 34.9724V19.5564C225.679 18.7694 226.326 18.1134 227.102 18.1134C227.877 18.1134 228.492 18.7694 228.492 19.6874C229.848 18.2774 231.529 17.9494 232.789 17.9494C236.344 17.9494 238.929 20.9344 238.929 24.6074C238.929 28.2814 236.409 31.3974 232.983 31.3974C231.917 31.3974 230.333 31.0694 229.331 30.3154Z" fill="white"/>
</g>
<defs>
<clipPath id="clip0_2323_43528">
<rect width="239" height="41" fill="white" transform="translate(0.5 0.483398)"/>
</clipPath>
</defs>
</svg>
