<svg width="192" height="59" viewBox="0 0 192 59" fill="none" xmlns="http://www.w3.org/2000/svg">
<path d="M80.4206 24.3306C79.9324 22.4098 78.7007 21.0039 76.2847 21.0039C72.7272 21.0039 71.2401 24.1665 71.2401 27.3746C71.2401 30.5826 72.7272 33.7478 76.2847 33.7478C78.8634 33.7478 80.2904 31.8043 80.5132 29.3686H83.3498C83.1169 33.3742 80.3054 36.1381 76.2847 36.1381C71.3102 36.1381 68.3359 32.1551 68.3359 27.3746C68.3359 22.594 71.3102 18.6136 76.2847 18.6136C80.025 18.6363 82.9767 20.7212 83.3247 24.3306H80.4206ZM85.0697 29.6715C85.0697 25.9712 87.2778 23.2982 91.1358 23.2982C94.9938 23.2982 97.1994 25.9712 97.1994 29.6715C97.1994 33.3717 94.9913 36.0674 91.1358 36.0674C87.2803 36.0674 85.0697 33.3969 85.0697 29.6715ZM94.5507 29.6715C94.5507 27.5866 93.5042 25.4083 91.1358 25.4083C88.7674 25.4083 87.7185 27.5866 87.7185 29.6715C87.7185 31.7563 88.7649 33.9623 91.1358 33.9623C93.5067 33.9623 94.5507 31.7816 94.5507 29.6715ZM99.4777 19.0124H102.126V21.5365H99.4777V19.0124ZM99.4777 23.6264H102.126V35.7418H99.4777V23.6264ZM105.011 23.6264H107.514V25.4083L107.562 25.4538C107.942 24.7946 108.488 24.2483 109.145 23.8698C109.801 23.4914 110.546 23.2942 111.302 23.2982C113.906 23.2982 115.558 24.7041 115.558 27.4225V35.7519H112.912V28.1267C112.864 26.2287 112.121 25.4083 110.563 25.4083C108.798 25.4083 107.659 26.8142 107.659 28.5937V35.7393H105.011V23.6264ZM133.201 35.7393H131.34L130.9 33.773C129.343 35.5525 127.923 36.1381 125.893 36.1381C120.918 36.1381 117.944 32.1551 117.944 27.3746C117.944 22.594 120.918 18.6136 125.893 18.6136C129.518 18.6136 132.562 20.5571 133.003 24.3306H130.179C129.898 22.1271 127.993 21.0039 125.903 21.0039C122.348 21.0039 120.858 24.1665 120.858 27.3746C120.858 30.5826 122.348 33.7478 125.903 33.7478C128.877 33.7957 130.504 31.981 130.549 29.1565H126.136V26.9303H133.201V35.7393ZM138.057 30.3757C138.057 32.2737 139.079 33.9598 141.287 33.9598C142.822 33.9598 143.751 33.2808 144.216 31.9406H146.72C146.139 34.5883 143.908 36.0623 141.282 36.0623C137.527 36.0623 135.404 33.4146 135.404 29.6891C135.404 26.2463 137.634 23.2932 141.212 23.2932C145 23.2932 147.326 26.7385 146.882 30.3605L138.057 30.3757ZM144.239 28.6088C144.146 26.9228 143.007 25.4008 141.217 25.4008C139.382 25.4008 138.128 26.8067 138.057 28.6088H144.239ZM157.022 27.68C156.812 26.2034 155.743 25.4083 154.268 25.4083C152.899 25.4083 150.968 26.1353 150.968 29.8128C150.968 31.832 151.852 33.9598 154.153 33.9598C155.687 33.9598 156.757 32.93 157.012 31.196H159.661C159.16 34.3334 157.245 36.0674 154.153 36.0674C150.397 36.0674 148.32 33.3742 148.32 29.8128C148.32 26.158 150.295 23.2982 154.245 23.2982C157.034 23.2982 159.405 24.7041 159.661 27.68H157.022ZM161.901 19.0124H164.553V28.523L169.352 23.6264H172.607L168.005 28.0788L173.05 35.7393H169.803L166.132 29.8582L164.553 31.4055V35.7393H161.901V19.0124ZM173.756 29.6715C173.756 25.9712 175.964 23.2982 179.819 23.2982C183.675 23.2982 185.875 25.9712 185.875 29.6715C185.875 33.3717 183.667 36.0674 179.809 36.0674C175.951 36.0674 173.756 33.3969 173.756 29.6715ZM183.237 29.6715C183.237 27.5866 182.19 25.4083 179.819 25.4083C177.448 25.4083 176.404 27.5866 176.404 29.6715C176.404 31.7563 177.451 33.9623 179.819 33.9623C182.188 33.9623 183.237 31.7816 183.237 29.6715Z" fill="white"/>
<path d="M53.6316 29.3761C53.6524 34.114 52.2792 38.7516 49.6857 42.7026C47.0922 46.6536 43.3948 49.7406 39.0612 51.5731C34.7275 53.4057 29.9522 53.9015 25.3391 52.9979C20.7259 52.0944 16.4821 49.832 13.1443 46.4968C9.80647 43.1617 7.52452 38.9036 6.58701 34.261C5.64951 29.6183 6.09854 24.7997 7.87732 20.4143C9.65611 16.029 12.6848 12.2739 16.5803 9.62389C20.4759 6.97388 25.0634 5.54796 29.7627 5.52645C36.0649 5.49827 42.12 7.9951 46.5962 12.4677C51.0725 16.9404 53.6031 23.0224 53.6316 29.3761Z" fill="#8DC63F"/>
<path d="M51.8445 29.3812C51.8643 33.7622 50.595 38.0507 48.1973 41.7044C45.7995 45.3582 42.381 48.213 38.3739 49.908C34.3668 51.6029 29.9512 52.0619 25.6854 51.2267C21.4196 50.3916 17.4952 48.3 14.4085 45.2163C11.3219 42.1326 9.21148 38.1953 8.3443 33.9024C7.47711 29.6095 7.89205 25.1537 9.53666 21.0986C11.1813 17.0434 13.9817 13.571 17.5837 11.1204C21.1858 8.66982 25.4278 7.35115 29.7732 7.33113C32.6585 7.31784 35.5181 7.87765 38.1889 8.97858C40.8596 10.0795 43.289 11.7 45.3386 13.7476C47.3881 15.7951 49.0175 18.2296 50.1338 20.912C51.2501 23.5944 51.8314 26.4723 51.8445 29.3812Z" fill="#F9E988"/>
<path d="M30.2734 8.7673C31.6702 8.51592 33.1001 8.51592 34.4969 8.7673C35.9071 8.99258 37.2702 9.45322 38.5302 10.1303C39.7819 10.8244 40.866 11.7659 41.9425 12.6543C43.019 13.5428 44.0931 14.4413 45.1145 15.4308C46.1561 16.4036 47.0652 17.5112 47.8183 18.7247C48.5949 19.9299 49.2308 21.2215 49.7135 22.5738C50.6528 25.2749 50.9202 28.167 50.4921 30.9966H50.352C49.9396 28.2934 49.2499 25.6407 48.294 23.0812C47.8359 21.8154 47.2965 20.581 46.6792 19.386C46.0305 18.1943 45.3167 17.0399 44.5412 15.928C43.7501 14.8026 42.7808 13.816 41.6721 13.0077C40.558 12.2076 39.2762 11.6876 38.0345 11.1954C36.7927 10.7032 35.5509 10.2136 34.2616 9.83749C32.9723 9.46141 31.6529 9.18124 30.2784 8.90865L30.2734 8.7673Z" fill="white"/>
<path d="M41.0141 21.5566C39.4193 21.0897 37.7595 20.4309 36.0921 19.7646C35.997 19.3405 35.624 18.813 34.8729 18.1694C33.7788 17.2128 31.7259 17.238 29.9509 17.6646C27.9931 17.2002 26.0579 17.0361 24.1927 17.4854C9.00866 21.7005 17.6209 32.0062 12.043 42.3548C12.8366 44.0509 21.3912 53.9654 33.7688 51.2975C33.7688 51.2975 29.5378 41.0423 39.0889 36.1204C46.8374 32.1147 52.4378 24.6991 41.0141 21.5566Z" fill="#8BC53F"/>
<path d="M42.8895 28.2984C42.891 28.4823 42.8382 28.6625 42.738 28.8162C42.6378 28.9699 42.4946 29.0901 42.3265 29.1616C42.1585 29.2332 41.9731 29.2528 41.794 29.218C41.6148 29.1833 41.45 29.0956 41.3203 28.9663C41.1906 28.837 41.1019 28.6717 41.0654 28.4915C41.029 28.3113 41.0464 28.1242 41.1156 27.954C41.1847 27.7838 41.3024 27.6381 41.4537 27.5354C41.605 27.4327 41.7832 27.3776 41.9657 27.3771C42.0863 27.3764 42.2059 27.3997 42.3176 27.4457C42.4294 27.4916 42.531 27.5593 42.6168 27.6448C42.7026 27.7304 42.7708 27.8321 42.8176 27.9443C42.8644 28.0564 42.8888 28.1767 42.8895 28.2984Z" fill="white"/>
<path d="M29.9492 17.6595C31.0558 17.7403 35.059 19.0578 36.0904 19.7646C35.2367 17.2405 32.3351 16.9124 29.9492 17.6595Z" fill="#009345"/>
<path d="M31.0043 24.0252C31.0043 24.8738 30.7547 25.7034 30.287 26.409C29.8193 27.1147 29.1546 27.6646 28.377 27.9894C27.5993 28.3142 26.7435 28.3991 25.9179 28.2336C25.0923 28.068 24.334 27.6594 23.7388 27.0593C23.1435 26.4592 22.7382 25.6946 22.574 24.8623C22.4097 24.0299 22.494 23.1672 22.8162 22.3831C23.1383 21.5991 23.6838 20.9289 24.3837 20.4574C25.0836 19.9859 25.9065 19.7343 26.7482 19.7343C27.877 19.7343 28.9595 20.1864 29.7577 20.9911C30.5559 21.7957 31.0043 22.8871 31.0043 24.0252Z" fill="white"/>
<path d="M29.7441 24.063C29.7446 24.6592 29.5697 25.2421 29.2416 25.738C28.9134 26.234 28.4467 26.6206 27.9005 26.8491C27.3544 27.0776 26.7533 27.1376 26.1732 27.0216C25.5932 26.9056 25.0603 26.6188 24.642 26.1974C24.2237 25.7761 23.9388 25.2391 23.8232 24.6544C23.7077 24.0697 23.7668 23.4636 23.9929 22.9128C24.2191 22.362 24.6022 21.8912 25.0939 21.5599C25.5855 21.2286 26.1635 21.0518 26.7549 21.0518C27.547 21.0525 28.3066 21.3699 28.867 21.9344C29.4273 22.4988 29.7428 23.2644 29.7441 24.063Z" fill="#58595B"/>
<path d="M46.3323 30.1864C42.8899 32.6322 38.9744 34.4772 33.4215 34.4772C30.8228 34.4772 30.2971 31.7008 28.5796 33.0587C27.6908 33.7629 24.5739 35.3304 22.0829 35.2193C19.5918 35.1083 15.5736 33.6317 14.4596 28.2933C14.0164 33.6317 13.7886 37.5641 11.8008 42.0721C15.7614 48.4655 25.2023 53.3949 33.7695 51.2748C32.8507 44.793 38.4687 38.4425 41.6357 35.1941C42.8323 33.9649 45.1406 31.9557 46.3323 30.1763V30.1864Z" fill="#8BC53F"/>
<path d="M46.1973 30.3479C45.1006 31.2988 43.877 32.0898 42.5622 32.6978C41.2516 33.3256 39.8853 33.8276 38.4814 34.1971C37.0794 34.5631 35.6123 34.8382 34.1277 34.7019C32.6431 34.5656 31.1234 34.0557 30.1445 32.9351L30.1921 32.8795C31.4038 33.6696 32.7883 33.9472 34.1702 33.9876C35.5734 34.0287 36.9766 33.911 38.3537 33.6368C39.7449 33.3444 41.1061 32.9219 42.4195 32.3747C43.7541 31.8609 45.0106 31.1608 46.1523 30.2949L46.1973 30.3479Z" fill="#58595B"/>
</svg>
