<svg width="124" height="40" viewBox="0 0 124 40" fill="none" xmlns="http://www.w3.org/2000/svg">
<g opacity="0.4">
<path d="M21.485 10.4124H20.6205V5.56055H15.6983V10.4124H10.7761V5.56055H5.83626V10.4124H0.914062V15.2642H5.83626V24.9853H0.914062V29.8371H5.83626V34.7064H10.7585V29.8545H15.6807V34.7064H20.6028V29.8545H21.4673C26.9011 29.8545 31.3294 25.5088 31.3294 20.1334C31.347 14.7755 26.9364 10.4124 21.485 10.4124ZM21.485 25.0027H10.7761V15.2816H21.5026C24.2195 15.2816 26.4248 17.4632 26.4248 20.1334C26.4248 22.8211 24.2019 25.0027 21.485 25.0027Z" fill="white"/>
<path d="M44.21 12.6812H38.2998V27.2366H44.21C48.2853 27.2366 51.3904 24.0777 51.3904 19.9589C51.3904 15.8401 48.2853 12.6812 44.21 12.6812ZM44.21 24.0428H41.6695V15.8924H44.1923C46.5211 15.8924 48.1089 17.4806 48.1089 19.9763C48.1089 22.472 46.5211 24.0428 44.21 24.0428Z" fill="white"/>
<path d="M55.9917 23.2922H63.4897C63.5779 22.8908 63.6131 22.4894 63.6131 22.0356C63.6131 18.8942 61.3373 16.5381 58.2499 16.5381C54.9155 16.5381 52.6396 18.9291 52.6396 22.0356C52.6396 25.1422 54.8802 27.5332 58.4792 27.5332C60.4905 27.5332 62.043 26.8002 63.0839 25.3865L60.561 23.9554C60.1376 24.4092 59.3966 24.7408 58.5322 24.7408C57.3678 24.7582 56.3975 24.3743 55.9917 23.2922ZM55.9388 20.971C56.2387 19.9064 57.0326 19.3305 58.2322 19.3305C59.1849 19.3305 60.1376 19.7668 60.4728 20.971H55.9388Z" fill="white"/>
<path d="M68.573 18.7025V16.8525H65.415V27.2542H68.573V22.542C68.573 20.4826 70.4254 19.9591 71.731 20.1685V16.6431C70.4078 16.6431 68.9964 17.3063 68.573 18.7025Z" fill="white"/>
<path d="M74.7989 15.9277C75.8398 15.9277 76.7043 15.0725 76.7043 14.0603C76.7043 13.048 75.8398 12.1929 74.7989 12.1929C73.758 12.1929 72.8936 13.048 72.8936 14.0603C72.8936 15.0725 73.758 15.9277 74.7989 15.9277ZM73.2111 27.2544H76.3691V16.8527H73.2111V27.2544Z" fill="white"/>
<path d="M85.0161 16.5556C83.6047 16.5556 82.5638 17.0268 81.8757 17.8297V12.6812H78.7178V27.2366H81.8757V26.2593C82.5638 27.0446 83.6047 27.5333 85.0161 27.5333C87.7859 27.5333 90.0618 25.1423 90.0618 22.0357C90.0441 18.9466 87.7683 16.5556 85.0161 16.5556ZM84.3809 24.5838C82.9166 24.5838 81.8757 23.6065 81.8757 22.0532C81.8757 20.4999 82.9343 19.5226 84.3809 19.5226C85.8453 19.5226 86.8861 20.4999 86.8861 22.0532C86.8861 23.6065 85.8276 24.5838 84.3809 24.5838Z" fill="white"/>
<path d="M93.4308 15.9277C94.4717 15.9277 95.3361 15.0725 95.3361 14.0603C95.3361 13.048 94.4717 12.1929 93.4308 12.1929C92.3899 12.1929 91.5254 13.048 91.5254 14.0603C91.5254 15.0725 92.3899 15.9277 93.4308 15.9277ZM91.843 27.2544H95.0009V16.8527H91.843V27.2544Z" fill="white"/>
<path d="M103.521 19.837V16.8526H101.351V13.938L98.1927 14.8804V16.8526H96.499V19.8544H98.1927V23.5369C98.1927 26.4515 99.3924 27.6732 103.538 27.2543V24.4095C102.145 24.4968 101.368 24.4095 101.368 23.5195V19.837H103.521Z" fill="white"/>
</g>
</svg>
