<svg width="123" height="40" viewBox="0 0 123 40" fill="none" xmlns="http://www.w3.org/2000/svg">
<path fill-rule="evenodd" clip-rule="evenodd" d="M90.1467 15.4805H93.2392V12.4212H90.1467V15.4805ZM73.7086 20.5777C74.3009 19.0266 75.8123 17.9235 77.5851 17.9235C79.3578 17.9235 80.8736 19.0266 81.4616 20.5777H73.7086ZM77.5851 15.0754C73.7086 15.0754 70.5638 18.1864 70.5638 22.0212C70.5638 25.856 73.7086 28.967 77.5851 28.967C80.2464 28.967 82.5592 27.502 83.7483 25.3476L81.1567 24.1023C80.4337 25.3131 79.1052 26.1232 77.5851 26.1232C75.6643 26.1232 74.0483 24.8305 73.5779 23.0725H81.5923V23.0768H84.5279C84.5802 22.7321 84.6063 22.3788 84.6063 22.0212C84.6063 18.1864 81.4659 15.0754 77.5851 15.0754ZM85.4252 28.5964H88.5177V25.5372H85.4252V28.5964ZM90.1467 28.5964H93.2392V16.8248H90.1467V28.5964ZM101.868 26.1232C99.5766 26.1232 97.7211 24.2876 97.7211 22.0212C97.7211 19.7548 99.5766 17.9192 101.868 17.9192C104.159 17.9192 106.014 19.7548 106.014 22.0212C106.014 24.2876 104.159 26.1232 101.868 26.1232ZM101.868 15.0754C97.9912 15.0754 94.8464 18.1864 94.8464 22.0212C94.8464 25.856 97.9912 28.967 101.868 28.967C105.744 28.967 108.889 25.856 108.889 22.0212C108.889 18.1864 105.744 15.0754 101.868 15.0754ZM37.2128 19.4618V22.6244H41.5379C41.3115 23.5293 40.8672 24.3393 40.2269 24.9856C39.26 25.9637 37.9228 26.498 36.4593 26.498C33.4191 26.498 30.9451 24.0506 30.9451 21.0388C30.9451 18.0313 33.4191 15.5796 36.4593 15.5796C38.0883 15.5796 39.5866 16.269 40.6233 17.4582L43.0973 15.4546C41.4552 13.5501 39.0204 12.4126 36.4593 12.4126C31.655 12.4126 27.748 16.2819 27.748 21.0345C27.748 25.7871 31.655 29.6564 36.4593 29.6564C38.7939 29.6564 40.9412 28.8248 42.5136 27.2348C43.8334 25.8991 44.7088 24.0377 44.8744 22.1763C44.9571 21.2672 44.9658 20.3623 44.9136 19.4532L37.2128 19.4618ZM52.9627 26.1232C50.676 26.1232 48.8162 24.2876 48.8162 22.0212C48.8162 19.7548 50.6717 17.9192 52.9627 17.9192C55.2538 17.9192 57.1093 19.7548 57.1093 22.0212C57.1093 24.2876 55.2538 26.1232 52.9627 26.1232ZM57.1093 16.4284C55.9463 15.5839 54.5133 15.0884 52.9627 15.0884C49.0862 15.0884 45.9458 18.1993 45.9458 22.0341C45.9458 25.8689 49.0906 28.9799 52.9627 28.9799C54.5133 28.9799 55.9463 28.4801 57.1093 27.6399V28.6007H59.984V15.4675H57.1093V16.4284ZM66.1516 12.4212H63.2769V15.4805H61.5564V18.1648H63.2769V25.1882C63.2769 25.912 63.3683 26.5239 63.5513 27.0021C63.7298 27.4761 64.0086 27.8467 64.3353 28.1354C64.6663 28.4284 65.054 28.6567 65.5156 28.7903C65.9861 28.9196 66.5 28.9713 67.0488 28.9713C67.6151 28.9713 68.1203 28.9153 68.5472 28.7989C68.9479 28.6912 69.3312 28.5404 69.684 28.3508V26.1878C69.1178 26.4291 68.5864 26.5196 67.9809 26.5454C67.3407 26.5756 66.9661 26.3946 66.6525 26.0973C66.3214 25.7871 66.1472 25.382 66.1472 24.7056V18.1648H69.684V15.4805H66.1472V12.4212H66.1516Z" fill="white"/>
<path fill-rule="evenodd" clip-rule="evenodd" d="M12.4658 27.2646C8.68076 27.2646 5.61004 24.2269 5.61004 20.4825C5.61004 16.7382 8.68076 13.7005 12.4658 13.7005V8.14648C5.57955 8.14648 0 13.6703 0 20.4825C0 27.2947 5.57955 32.8143 12.4658 32.8143C19.3477 32.8143 24.9316 27.2904 24.9316 20.4825H19.3215C19.3215 24.2312 16.2508 27.2646 12.4658 27.2646Z" fill="white"/>
<path fill-rule="evenodd" clip-rule="evenodd" d="M12.4639 20.4827H19.3196V13.7007H12.4639V20.4827Z" fill="white"/>
</svg>
