<svg width="123" height="40" viewBox="0 0 123 40" fill="none" xmlns="http://www.w3.org/2000/svg">
<g clip-path="url(#clip0_2059_147)">
<mask id="mask0_2059_147" style="mask-type:luminance" maskUnits="userSpaceOnUse" x="5" y="3" width="82" height="33">
<path d="M86.4307 3.90479H5.43066V35.56H86.4307V3.90479Z" fill="white"/>
</mask>
<g mask="url(#mask0_2059_147)">
<path d="M18.8661 13.6722C18.959 9.02372 16.3547 4.97311 14.9982 3.9996C14.992 3.99333 14.8712 3.9276 14.8805 4.10916C14.8805 4.11228 14.8774 4.11228 14.8774 4.11541C14.7381 12.8959 10.2724 15.2624 7.84768 18.4804C2.45925 25.6361 6.95576 33.8001 12.7808 35.3463C12.88 35.3714 13.1494 35.4528 13.6604 35.5592C13.9267 35.6156 14.0041 35.387 13.809 35.0458C13.1122 33.8219 11.8735 31.7559 11.6289 29.1014C11.0715 22.9378 18.7577 19.0813 18.8661 13.6722Z" fill="white"/>
<path d="M21.8015 16.6491C21.755 16.6146 21.6901 16.6178 21.6839 16.6772C21.56 17.7948 20.4172 20.1112 18.9122 22.2773C13.8457 29.5803 16.3976 32.8921 18.3796 35.1898C18.7449 35.6155 18.9276 35.5217 19.1197 35.2181C19.2993 34.93 19.5717 34.5637 20.7425 34.0035C20.9251 33.9158 25.3474 31.5431 25.8274 26.1402C26.2889 20.9126 22.972 17.6069 21.8015 16.6491Z" fill="#C2C2C2"/>
<path d="M48.1099 15.3188V34.5357H44.0314V26.7727H36.1934V34.5357H32.0127V15.3188H36.1934V23.082H44.0314V15.3188H48.1099Z" fill="white"/>
<path d="M66.9661 15.3188V19.119H65.0244H61.11V34.5326H56.9139V19.119H53.1048H51.1631V15.3188H66.9661Z" fill="white"/>
<path fill-rule="evenodd" clip-rule="evenodd" d="M81.8182 34.5546L77.0242 27.8682L72.2676 34.5264L67.6162 34.5326L74.6677 24.7223L68.0126 15.3188H72.6609L86.4479 34.5546H81.8182Z" fill="white"/>
<path d="M78.3281 19.6201L80.6291 22.8506L86.0796 15.3159H81.456L78.3281 19.6201Z" fill="#C2C2C2"/>
</g>
</g>
<defs>
<clipPath id="clip0_2059_147">
<rect width="81" height="31.6552" fill="white" transform="translate(5.43066 3.90479)"/>
</clipPath>
</defs>
</svg>
