<svg width="123" height="40" viewBox="0 0 123 40" fill="none" xmlns="http://www.w3.org/2000/svg">
<path d="M83.6111 20.1264C83.6111 19.4976 83.6111 18.9061 83.5908 18.3599C83.5771 17.8446 83.5263 17.3309 83.4389 16.823C83.3572 16.3591 83.213 15.9086 83.0102 15.484C82.7961 15.0461 82.51 14.6477 82.1639 14.3055C81.6732 13.8002 81.0891 13.3957 80.4445 13.1147C79.7471 12.8308 79.0002 12.69 78.2479 12.7008C77.4927 12.691 76.743 12.8316 76.0423 13.1147C75.3939 13.3918 74.8062 13.7946 74.3127 14.2999C73.9673 14.6418 73.6823 15.0403 73.4698 15.4783C73.2687 15.9031 73.1267 16.3536 73.0478 16.8173C72.9624 17.3254 72.9136 17.8391 72.9015 18.3542C72.888 18.9005 72.8813 19.4919 72.8846 20.1207C72.888 20.7495 72.8846 21.3365 72.9015 21.8861C72.9136 22.4013 72.9624 22.9149 73.0478 23.423C73.1267 23.8867 73.2687 24.3372 73.4698 24.762C73.6831 25.1995 73.968 25.5978 74.3127 25.9404C74.8054 26.4461 75.3934 26.8483 76.0423 27.1234C76.7426 27.4083 77.4924 27.5498 78.2479 27.5395C79.0005 27.5507 79.7476 27.4091 80.4445 27.1234C81.0892 26.8461 81.6735 26.4442 82.1639 25.9404C82.5092 25.5976 82.7952 25.1994 83.0102 24.762C83.213 24.3373 83.3572 23.8868 83.4389 23.423C83.5253 22.9165 83.5753 22.4044 83.5886 21.8906C83.6055 21.341 83.6133 20.7529 83.6088 20.1252L83.6111 20.1264ZM80.7753 20.1264C80.7753 20.823 80.7652 21.4032 80.7416 21.8646C80.7283 22.2436 80.6907 22.6214 80.629 22.9955C80.5868 23.2448 80.5111 23.4871 80.404 23.7159C80.317 23.9003 80.2032 24.0707 80.0664 24.2214C79.8551 24.4644 79.5931 24.6575 79.2989 24.7869C78.9679 24.9292 78.6113 25.0016 78.2512 24.9995C77.8894 25.0011 77.5311 24.9288 77.198 24.7869C76.8966 24.66 76.6275 24.4667 76.4102 24.2214C76.2726 24.0713 76.1587 23.9008 76.0727 23.7159C75.9685 23.4869 75.8965 23.2445 75.8588 22.9955C75.7988 22.6212 75.7612 22.2435 75.7463 21.8646C75.7261 21.4032 75.7159 20.8238 75.7159 20.1264C75.7159 19.4297 75.7261 18.8484 75.7463 18.387C75.7612 18.0081 75.7988 17.6305 75.8588 17.2561C75.8965 17.0072 75.9685 16.7647 76.0727 16.5357C76.159 16.3509 76.2728 16.1805 76.4102 16.0302C76.6278 15.7852 76.8969 15.5921 77.198 15.4647C77.5306 15.3212 77.8893 15.2488 78.2512 15.2521C78.6114 15.2484 78.9684 15.3208 79.2989 15.4647C79.5928 15.5945 79.8548 15.7875 80.0664 16.0302C80.203 16.1812 80.3167 16.3515 80.404 16.5357C80.5111 16.7645 80.5868 17.0068 80.629 17.2561C80.6906 17.6303 80.7282 18.008 80.7416 18.387C80.7663 18.8473 80.7753 19.4286 80.7753 20.1264Z" fill="white"/>
<path d="M106.209 13.0781C106.208 12.9405 106.097 12.8294 105.96 12.8281H103.621C103.483 12.8287 103.372 12.9403 103.372 13.0781V21.7635L97.6665 12.8982C97.6282 12.8383 97.5945 12.8281 97.5101 12.8281H95.3405C95.2039 12.83 95.0936 12.9408 95.0918 13.0781V27.1716C95.0936 27.3086 95.2041 27.4191 95.3405 27.4204H97.6789C97.8154 27.4197 97.9258 27.3087 97.9265 27.1716V18.4635L103.633 27.3491C103.672 27.4091 103.704 27.4192 103.789 27.4192H105.958C106.094 27.4186 106.205 27.3078 106.206 27.1704L106.209 13.0781Z" fill="white"/>
<path d="M90.528 13.0781C90.5274 12.9403 90.4164 12.8287 90.2793 12.8281H87.9421C87.805 12.8287 87.694 12.9403 87.6934 13.0781V27.1704C87.694 27.3082 87.805 27.4197 87.9421 27.4204H90.2793C90.4164 27.4197 90.5274 27.3082 90.528 27.1704V13.0781Z" fill="white"/>
<path d="M62.5465 20.1269C62.5465 19.4257 62.5543 18.8422 62.5746 18.3773C62.5884 17.9984 62.6259 17.6206 62.6871 17.2464C62.9032 15.9911 63.8597 15.2504 65.0807 15.2504C65.8774 15.2571 66.5998 15.5534 67.0612 16.2275C67.2701 16.5421 67.4225 16.8912 67.5113 17.2589C67.5182 17.2976 67.5534 17.3246 67.5924 17.3211H70.3437C70.3831 17.3211 70.3977 17.2939 70.391 17.2555C70.0905 15.5444 69.1824 14.0075 67.5777 13.2464C66.7891 12.8794 65.9283 12.6958 65.0593 12.7092C63.5101 12.7092 62.2051 13.2422 61.1443 14.3083C60.5387 14.9015 60.1253 15.6646 59.9583 16.4978C59.7962 17.318 59.7144 18.5274 59.7129 20.1257C59.7114 21.7241 59.7932 22.9331 59.9583 23.7526C60.1239 24.5868 60.5361 25.3515 61.141 25.9466C62.201 27.0119 63.506 27.5446 65.0559 27.5446C65.9247 27.5578 66.7854 27.3746 67.5743 27.0085C69.179 26.2474 70.0872 24.7105 70.3876 22.9994C70.3944 22.9598 70.3797 22.9338 70.3404 22.9338H67.5878C67.5487 22.9297 67.5132 22.957 67.5068 22.996C67.4178 23.3632 67.2654 23.7119 67.0567 24.0263C66.5953 24.7048 65.8729 24.9977 65.0762 25.0034C63.8552 25.0034 62.8987 24.2638 62.6826 23.0085C62.6215 22.6342 62.5839 22.2565 62.5701 21.8775C62.5543 21.4105 62.5465 20.8258 62.5465 20.1269Z" fill="white"/>
<path d="M33.487 13.0781C33.4864 12.9403 33.3754 12.8287 33.2383 12.8281H30.901C30.7639 12.8287 30.653 12.9403 30.6523 13.0781V27.1716C30.6536 27.3089 30.7644 27.4198 30.901 27.4205H33.2383C33.375 27.4198 33.4858 27.3089 33.487 27.1716V23.0347L35.3629 20.7807L39.2159 27.3457C39.2456 27.3941 39.299 27.4227 39.3555 27.4205H42.1958C42.3263 27.4205 42.3499 27.3389 42.2847 27.227L37.2399 18.632L41.8683 13.052C41.9617 12.939 41.9223 12.8315 41.776 12.8315H38.6713C38.6335 12.8293 38.5972 12.8463 38.5745 12.8768L33.487 19.0086V13.0781Z" fill="white"/>
<path d="M50.5148 25.0025C49.1994 25.0025 48.0065 23.7788 48.0065 22.3177V13.0781C48.0059 12.9403 47.8949 12.8287 47.7578 12.8281H45.4206C45.2835 12.8287 45.1725 12.9403 45.1719 13.0781V22.2815C45.1719 25.4989 47.5665 27.5436 50.5148 27.5436C53.4632 27.5436 55.8578 25.4989 55.8578 22.2815V13.0781C55.8566 12.9405 55.746 12.8294 55.6091 12.8281H53.2707C53.1341 12.8294 53.0238 12.9407 53.0232 13.0781V22.3177C53.0232 23.7777 51.8292 25.0025 50.5148 25.0025Z" fill="white"/>
<path fill-rule="evenodd" clip-rule="evenodd" d="M7.15738 20.1266L14.4134 27.4199L18.9934 22.8171C19.8123 22.076 21.0653 22.109 21.8445 22.8921C22.6238 23.6753 22.6566 24.9344 21.9192 25.7575L15.8751 31.8328C15.0633 32.6352 13.7612 32.6352 12.9493 31.8328L4.22933 23.067V28.2772C4.22933 29.427 3.3018 30.3592 2.15763 30.3592C1.01347 30.3592 0.0859375 29.427 0.0859375 28.2772V11.9693C0.0859375 10.8195 1.01347 9.88731 2.15763 9.88731C3.3018 9.88731 4.22933 10.8195 4.22933 11.9693V17.1795L12.9482 8.41598C13.7598 7.61297 15.0624 7.61297 15.874 8.41598L21.9226 14.4901C22.66 15.3132 22.6272 16.5724 21.8479 17.3555C21.0687 18.1387 19.8157 18.1716 18.9968 17.4305L14.4167 12.8277L7.15738 20.1266ZM14.4167 18.0424C13.5778 18.0419 12.8212 18.5494 12.4999 19.3282C12.1785 20.107 12.3557 21.0037 12.9487 21.6001C13.5418 22.1964 14.4339 22.3749 15.209 22.0524C15.9841 21.7298 16.4896 20.9698 16.4896 20.1266C16.4899 19.5739 16.2717 19.0436 15.8829 18.6525C15.4942 18.2614 14.9668 18.0415 14.4167 18.0412V18.0424Z" fill="white"/>
</svg>
