<svg width="73" height="81" viewBox="0 0 73 81" fill="none" xmlns="http://www.w3.org/2000/svg">
<path d="M72.8031 0.483398H37.1553V39.4833H72.8031V0.483398Z" fill="#567BFF"/>
<path d="M37.2188 39.4833V0.483398H0V39.4833V40.2229V80.4834H72.7981V39.4833H37.2188Z" fill="#191927"/>
<path d="M19.6993 68.9852C18.6206 69.0143 17.5505 68.7716 16.5874 68.2789C15.7313 67.8106 15.0336 67.0967 14.5798 66.2282C14.0919 65.2723 13.8522 64.2091 13.8778 63.1351V58.4788C13.8522 57.4104 14.0962 56.3527 14.5798 55.4024C15.0421 54.5437 15.7356 53.837 16.5874 53.3683C17.5419 52.8568 18.6163 52.6017 19.6993 52.6286C20.7694 52.6038 21.831 52.8585 22.7727 53.3683C23.6202 53.8396 24.3093 54.5459 24.7631 55.4024C25.251 56.3527 25.4908 57.4104 25.4651 58.4788V61.2354H15.7356V63.1351C15.6628 64.26 16.0309 65.3686 16.7543 66.2282C17.1353 66.6177 17.5976 66.9199 18.1027 67.1142C18.612 67.3085 19.1557 67.3903 19.6993 67.3544C20.5896 67.3967 21.4714 67.1622 22.2205 66.6819C22.884 66.2252 23.3548 65.545 23.5603 64.7655H25.4308C25.3367 65.3806 25.1184 65.9705 24.7931 66.5012C24.472 67.032 24.044 67.4935 23.5431 67.8586C22.4174 68.6445 21.069 69.04 19.6993 68.9852ZM23.6116 59.941V58.4788C23.6716 57.3526 23.3163 56.2435 22.6057 55.3686C22.2333 54.9812 21.7753 54.6799 21.2745 54.4851C20.7737 54.2908 20.2343 54.2082 19.6993 54.2424C19.1557 54.2077 18.6163 54.2886 18.107 54.4795C17.6019 54.6709 17.1396 54.9684 16.7543 55.3519C16.0309 56.226 15.6671 57.344 15.7356 58.4788V59.7227H23.877L23.6116 59.941Z" fill="#D6D6D6"/>
<path d="M61.6488 53.5365L60.4288 52.4441L54.3249 59.4033L48.2209 52.4441L47.001 53.5365L53.2376 60.6305L47.001 67.7412L48.2209 68.834L54.3249 61.8744L60.4288 68.834L61.6488 67.7412L55.4121 60.6305L61.6488 53.5365Z" fill="#D6D6D6"/>
<path d="M20.7983 29.8175V16.9238V15.0413H18.9236H15.6318V16.9238H18.9236V29.8175H15.6318V31.7H24.0901V29.8175H20.7983Z" fill="#D6D6D6"/>
</svg>
