<svg width="80" height="92" viewBox="0 0 80 92" fill="none" xmlns="http://www.w3.org/2000/svg">
<path d="M79.9998 0H40.8281V44.5977H79.9998V0Z" fill="#FF57D4"/>
<path d="M40.8979 44.5977V0H0V44.5977V45.4435V91.4833H79.9943V44.5977H40.8979Z" fill="#7B7D4D"/>
<path d="M21.646 78.3343C20.4607 78.3676 19.2848 78.0901 18.2265 77.5272C17.2858 76.9912 16.5191 76.1747 16.0205 75.1815C15.4843 74.089 15.2209 72.8726 15.2491 71.6444V66.3197C15.2209 65.098 15.489 63.8884 16.0205 62.8017C16.5285 61.8198 17.2905 61.0121 18.2265 60.4757C19.2754 59.8907 20.456 59.5995 21.646 59.6298C22.8219 59.6014 23.9884 59.8932 25.0232 60.4757C25.9545 61.0151 26.7118 61.8228 27.2104 62.8017C27.7466 63.8884 28.01 65.098 27.9818 66.3197V69.4725H17.2905V71.6444C17.2105 72.9308 17.615 74.1991 18.4099 75.1815C18.8286 75.6269 19.3366 75.9725 19.8916 76.1948C20.4513 76.417 21.0487 76.511 21.646 76.4698C22.6244 76.5183 23.5933 76.2496 24.4165 75.7008C25.1455 75.1781 25.6629 74.4003 25.8887 73.5094H27.9442C27.8407 74.2128 27.6008 74.8868 27.2433 75.4938C26.8906 76.1008 26.4202 76.6285 25.8699 77.0465C24.6328 77.9452 23.1512 78.397 21.646 78.3343ZM25.9451 67.9923V66.3197C26.011 65.0319 25.6206 63.7636 24.8398 62.7636C24.4306 62.3201 23.9273 61.9755 23.377 61.7532C22.8266 61.531 22.234 61.4361 21.646 61.4757C21.0487 61.4356 20.456 61.5281 19.8963 61.7469C19.3413 61.9652 18.8333 62.3054 18.4099 62.744C17.615 63.7435 17.2152 65.0221 17.2905 66.3197V67.7422H26.2367L25.9451 67.9923Z" fill="white"/>
<path d="M67.7422 60.6686L66.4017 59.4189L59.6944 67.3776L52.987 59.4189L51.6465 60.6686L58.4996 68.781L51.6465 76.9124L52.987 78.1616L59.6944 70.2034L66.4017 78.1616L67.7422 76.9124L60.8891 68.781L67.7422 60.6686Z" fill="white"/>
<path d="M22.8559 33.5443V18.8003V16.647H20.7958H17.1787V18.8003H20.7958V33.5443H17.1787V35.6975H26.473V33.5443H22.8559Z" fill="white"/>
</svg>
