<svg width="30" height="31" viewBox="0 0 30 31" fill="none" xmlns="http://www.w3.org/2000/svg">
<g clip-path="url(#clip0_2108_1277)">
<path d="M16.922 15.3133C16.922 20.047 13.1337 23.8846 8.46111 23.8846C3.78844 23.8846 0 20.0462 0 15.3133C0 10.5803 3.78816 6.7417 8.46111 6.7417C13.1341 6.7417 16.922 10.5795 16.922 15.3133Z" fill="white"/>
<path d="M26.2033 15.3133C26.2033 19.7692 24.3093 23.3828 21.9727 23.3828C19.6362 23.3828 17.7422 19.7692 17.7422 15.3133C17.7422 10.8575 19.636 7.2439 21.9724 7.2439C24.309 7.2439 26.2033 10.8564 26.2033 15.3133Z" fill="white"/>
<path d="M29.9999 15.3132C29.9999 19.3046 29.3339 22.5422 28.512 22.5422C27.6902 22.5422 27.0244 19.3054 27.0244 15.3132C27.0244 11.321 27.6905 8.08423 28.512 8.08423C29.3336 8.08423 29.9999 11.3207 29.9999 15.3132Z" fill="white"/>
</g>
<defs>
<clipPath id="clip0_2108_1277">
<rect width="30" height="30" fill="white" transform="translate(0 0.741699)"/>
</clipPath>
</defs>
</svg>
