<svg width="180" height="35" viewBox="0 0 180 35" fill="none" xmlns="http://www.w3.org/2000/svg">
<path d="M39.8022 19.9585L32.8713 7.93633C31.3521 5.43073 27.6468 5.40395 26.1805 8.04298L18.9033 20.5449C17.5438 22.8374 19.2232 25.7163 21.9421 25.7163H36.5235C39.2689 25.7163 41.3214 22.7573 39.8022 19.9585Z" fill="white"/>
<path d="M29.8042 20.893L29.3776 20.1467C28.978 19.4537 28.0982 17.9608 28.0982 17.9608L22.2338 7.77797C20.7144 5.51223 17.1158 5.3257 15.5963 8.1778L8.77231 19.9869C7.35954 22.4658 9.03871 25.6911 12.1043 25.7179H26.6054H32.7899H36.4685C32.7098 25.7445 31.5104 23.7986 29.8042 20.893Z" fill="white"/>
<path d="M93.9424 17.7238C93.9689 21.7223 97.2211 24.8678 101.22 24.8145C103.699 24.8145 105.618 23.9615 107.057 22.2821L106.151 21.5092C105.565 21.0293 104.738 21.0027 104.152 21.4557C103.352 22.0425 102.366 22.3622 101.193 22.3622C98.4208 22.3622 96.6878 20.5761 96.6878 17.6705C96.6878 14.7916 98.3672 13.0857 101.193 13.0857C102.339 13.0857 103.352 13.3788 104.152 13.992C104.765 14.4451 105.591 14.4186 106.151 13.9386L107.057 13.1658C105.618 11.4596 103.619 10.5798 101.086 10.5798C98.9273 10.5798 97.1144 11.2463 95.8616 12.4725C94.6088 13.7253 93.9424 15.5379 93.9424 17.7238Z" fill="white"/>
<path d="M56.5474 23.1915L60.3325 16.5808V24.631H63.2116V10.7429H61.4256C60.8658 10.7429 60.3325 11.0363 60.0661 11.5428L55.5346 19.8061L51.0027 11.5428C50.7363 11.0363 50.2033 10.7429 49.6432 10.7429H47.8574V24.631H50.7363V16.5808L54.5217 23.1915H56.5474Z" fill="white"/>
<path d="M65.584 10.7676V24.6557L77.1263 24.6292V23.7494C77.1263 23.0564 76.5665 22.4964 75.8735 22.4964H68.4629V18.7645H75.8735V16.6322H68.4629V12.9001H75.8735C76.5665 12.9001 77.1263 12.3403 77.1263 11.6473V10.7676H65.584Z" fill="white"/>
<path fill-rule="evenodd" clip-rule="evenodd" d="M155.522 19.7204C155.522 22.8394 157.361 24.7586 160.294 24.7586C161.413 24.7586 162.427 24.4387 163.066 23.8523L163.226 23.7191V24.5721H165.519V15.1088C165.519 15.0024 165.438 14.8957 165.305 14.8957H163.253V15.6688L163.092 15.562C162.319 15.0024 161.36 14.709 160.24 14.709C157.334 14.709 155.522 16.6282 155.522 19.7204ZM157.895 19.7204C157.895 17.8279 158.988 16.4152 160.826 16.4152C161.84 16.4152 162.666 16.6818 163.226 17.3215L163.253 17.348V22.1995L163.226 22.2262C162.427 23.0261 161.413 23.0792 160.826 23.0792C158.988 23.0792 157.895 21.6133 157.895 19.7204Z" fill="white"/>
<path d="M93.7003 10.7678H90.9812C90.4747 10.7678 90.0216 10.9811 89.7018 11.3809L86.4229 15.5126L83.1442 11.4075C82.8245 11.0077 82.3711 10.7944 81.8646 10.7944H79.1455L84.6634 17.7253L79.1455 24.6559H81.8646C82.3711 24.6559 82.8245 24.4424 83.1442 24.0428L86.4229 19.9377L89.7284 24.0694C90.0483 24.4424 90.5013 24.6827 91.0077 24.6827H93.7269L88.209 17.7518L93.7003 10.7678Z" fill="white"/>
<path fill-rule="evenodd" clip-rule="evenodd" d="M133.369 23.5058C134.355 24.3588 135.661 24.7854 137.261 24.7854C138.86 24.7854 140.165 24.3588 141.099 23.5058C141.605 23.0795 141.952 22.5998 142.166 22.0665C142.378 21.5333 142.485 20.7602 142.485 19.7207C142.485 18.7077 142.378 17.9346 142.166 17.3748C141.979 16.8949 141.632 16.4152 141.126 15.9886C140.139 15.1356 138.833 14.7092 137.234 14.7092C135.635 14.7092 134.328 15.1356 133.342 15.9886C132.835 16.4152 132.489 16.8683 132.302 17.3748C132.089 17.9081 131.982 18.7077 131.982 19.7207C131.982 20.7602 132.089 21.5333 132.302 22.0665C132.515 22.5998 132.862 23.0795 133.369 23.5058ZM134.621 19.7474C134.621 17.3748 135.501 16.1753 137.261 16.1753C138.993 16.1753 139.9 17.3748 139.9 19.774C139.9 22.1464 139.019 23.3459 137.261 23.3459C135.501 23.3459 134.621 22.1464 134.621 19.7474Z" fill="white"/>
<path d="M170.588 24.7873C169.601 24.7873 168.828 24.574 168.241 24.2009C167.629 23.8009 167.309 23.2145 167.309 22.4146V10.7925H168.855C169.414 10.7925 169.895 11.2456 169.895 11.832V22.0681C169.895 22.0949 169.895 22.5748 170.294 22.9744C170.534 23.2145 170.827 23.3479 171.227 23.3479H171.521C171.627 23.3479 171.734 23.4544 171.734 23.561V24.8138L170.588 24.7873Z" fill="white"/>
<path fill-rule="evenodd" clip-rule="evenodd" d="M144.537 23.6942C145.63 24.4138 146.909 24.7873 148.296 24.7873C150.321 24.7873 151.867 24.2538 152.854 23.1875C153.707 22.3345 154.134 21.1618 154.134 19.7225C154.134 18.2827 153.76 17.1098 153.014 16.2303C152.161 15.2441 150.881 14.7376 149.202 14.7376C148.243 14.7376 147.496 14.8708 146.936 15.1642L146.456 15.4306V11.832C146.456 11.2722 145.977 10.7925 145.416 10.7925H143.844V23.1079C143.844 23.1875 143.897 23.2678 143.95 23.2944C144.217 23.4544 144.431 23.5878 144.537 23.6942ZM146.563 16.8434C147.309 16.3903 147.976 16.177 148.562 16.177C150.454 16.177 151.441 17.3767 151.441 19.7225C151.441 20.6554 151.201 21.4816 150.774 22.1215C150.268 22.9213 149.522 23.3209 148.562 23.3209C147.843 23.3209 147.15 23.1344 146.563 22.7611L146.456 22.6813V16.8967L146.563 16.8434Z" fill="white"/>
<path d="M118.946 24.8107C114.468 24.8107 111.695 22.0916 111.695 17.7198C111.695 13.3483 114.468 10.6294 118.893 10.6294C121.025 10.6294 122.811 11.2425 124.197 12.4953L123.531 13.2416C123.238 13.5616 122.811 13.7481 122.385 13.7481C122.145 13.7481 121.905 13.6948 121.692 13.5881C120.865 13.1618 119.906 12.9485 118.893 12.9485C116.014 12.9485 114.228 14.7878 114.228 17.7466C114.228 20.7321 116.094 22.5715 119.079 22.5715C120.519 22.5715 121.638 22.3049 122.465 21.7185L122.518 21.692V18.8396H119.346V17.9066C119.346 17.2133 119.906 16.6538 120.599 16.6538H124.517C124.624 16.6538 124.73 16.7604 124.73 16.8668V23.0246C123.371 24.1976 121.425 24.8107 118.946 24.8107Z" fill="white"/>
<path d="M127.533 24.2009C128.12 24.574 128.893 24.7873 129.879 24.7873L131.025 24.8138V23.561C131.025 23.4544 130.919 23.3479 130.812 23.3479H130.519C130.119 23.3479 129.826 23.2145 129.586 22.9744C129.186 22.5748 129.186 22.0949 129.186 22.0681V11.832C129.186 11.2456 128.706 10.7925 128.147 10.7925H126.601V22.4146C126.601 23.2145 126.921 23.8009 127.533 24.2009Z" fill="white"/>
</svg>
