<svg width="123" height="40" viewBox="0 0 123 40" fill="none" xmlns="http://www.w3.org/2000/svg">
<g opacity="0.4">
<path fill-rule="evenodd" clip-rule="evenodd" d="M0.0859375 16.3441V38.1168H61.1722V3.30786H23.6332V16.3441H0.0859375ZM12.3714 31.2231H12.8492L15.3063 21.2582H19.811V33.3389H17.4904V23.374H17.0126L14.6238 33.3389H10.6651L8.27626 23.374H7.79849V33.3389H5.4779V21.2582H9.98258L12.3714 31.2231ZM44.7915 33.3389H36.5329V21.2582H44.7915V23.374H38.9218V26.1724H43.9725V28.22H38.9218V31.2231H44.7915V33.3389ZM24.3157 27.2644C24.3157 29.7215 25.5442 31.5644 28.2061 31.5644C30.8679 31.5644 32.0965 29.6533 32.0965 27.2644C32.0965 24.8756 30.8679 23.0328 28.2061 23.0328C25.5442 23.0328 24.3157 24.8073 24.3157 27.2644ZM21.8586 27.2644C21.8586 23.5105 24.1792 20.9169 28.2061 20.9169C32.233 20.9169 34.5536 23.5105 34.5536 27.2644C34.5536 31.0183 32.233 33.6802 28.2061 33.6802C24.1792 33.6802 21.8586 31.0183 21.8586 27.2644ZM48.9549 33.3389H46.4296L50.32 26.9232L46.6343 21.2582H49.2279L51.8898 25.5581L54.5517 21.2582H57.1453L53.3231 26.9914L57.35 33.3389H54.8247L51.7533 28.5612L48.9549 33.3389Z" fill="white"/>
</g>
</svg>
