<svg width="123" height="40" viewBox="0 0 123 40" fill="none" xmlns="http://www.w3.org/2000/svg">
<path d="M25.1077 7.81372H1.29492C1.14807 7.81372 1.00722 7.87048 0.903419 7.97164C0.799507 8.07269 0.741211 8.20981 0.741211 8.35289V31.5357C0.741211 31.6787 0.799507 31.8158 0.903419 31.9169C1.00722 32.018 1.14807 32.0748 1.29492 32.0748H25.1077C25.2547 32.0748 25.3955 32.018 25.4993 31.9169C25.6033 31.8158 25.6616 31.6787 25.6616 31.5357V8.35289C25.6616 8.20981 25.6033 8.07269 25.4993 7.97164C25.3955 7.87048 25.2547 7.81372 25.1077 7.81372ZM17.3547 23.4487C17.3547 23.5916 17.2964 23.7288 17.1925 23.8299C17.0887 23.931 16.9479 23.9878 16.801 23.9878H9.60174C9.45489 23.9878 9.31404 23.931 9.21013 23.8299C9.10633 23.7288 9.04803 23.5916 9.04803 23.4487V16.4398C9.04803 16.2969 9.10633 16.1598 9.21013 16.0587C9.31404 15.9575 9.45489 15.9008 9.60174 15.9008H16.801C16.9479 15.9008 17.0887 15.9575 17.1925 16.0587C17.2964 16.1598 17.3547 16.2969 17.3547 16.4398V23.4487Z" fill="white"/>
<path d="M74.96 15.8999H67.7609C67.455 15.8999 67.207 16.1412 67.207 16.439V23.4478C67.207 23.7455 67.455 23.987 67.7609 23.987H74.96C75.2659 23.987 75.5138 23.7455 75.5138 23.4478V16.439C75.5138 16.1412 75.2659 15.8999 74.96 15.8999Z" fill="white"/>
<path d="M66.6524 7.81372H59.4532C59.1474 7.81372 58.8994 8.05504 58.8994 8.35289V15.3616C58.8994 15.6594 59.1474 15.9008 59.4532 15.9008H66.6524C66.9584 15.9008 67.2062 15.6594 67.2062 15.3616V8.35289C67.2062 8.05504 66.9584 7.81372 66.6524 7.81372Z" fill="white"/>
<path d="M83.2658 7.81372H76.0665C75.7607 7.81372 75.5127 8.05504 75.5127 8.35289V15.3616C75.5127 15.6594 75.7607 15.9008 76.0665 15.9008H83.2658C83.5716 15.9008 83.8195 15.6594 83.8195 15.3616V8.35289C83.8195 8.05504 83.5716 7.81372 83.2658 7.81372Z" fill="white"/>
<path d="M66.6524 23.9883H59.4532C59.1474 23.9883 58.8994 24.2296 58.8994 24.5273V31.5362C58.8994 31.8339 59.1474 32.0753 59.4532 32.0753H66.6524C66.9584 32.0753 67.2062 31.8339 67.2062 31.5362V24.5273C67.2062 24.2296 66.9584 23.9883 66.6524 23.9883Z" fill="white"/>
<path d="M83.2658 23.9883H76.0665C75.7607 23.9883 75.5127 24.2296 75.5127 24.5273V31.5362C75.5127 31.8339 75.7607 32.0753 76.0665 32.0753H83.2658C83.5716 32.0753 83.8195 31.8339 83.8195 31.5362V24.5273C83.8195 24.2296 83.5716 23.9883 83.2658 23.9883Z" fill="white"/>
<path d="M54.1798 7.81372H46.9806C46.6747 7.81372 46.4268 8.05504 46.4268 8.35289V15.3616C46.4268 15.6594 46.6747 15.9008 46.9806 15.9008H54.1798C54.4856 15.9008 54.7336 15.6594 54.7336 15.3616V8.35289C54.7336 8.05504 54.4856 7.81372 54.1798 7.81372Z" fill="white"/>
<path d="M54.1798 23.9883H46.9806C46.6747 23.9883 46.4268 24.2296 46.4268 24.5273V31.5362C46.4268 31.8339 46.6747 32.0753 46.9806 32.0753H54.1798C54.4856 32.0753 54.7336 31.8339 54.7336 31.5362V24.5273C54.7336 24.2296 54.4856 23.9883 54.1798 23.9883Z" fill="white"/>
<path d="M46.4281 16.4338C46.4281 16.2908 46.3697 16.1537 46.2659 16.0526C46.162 15.9515 46.0211 15.8947 45.8743 15.8947H38.1213V8.35289C38.1213 8.20981 38.0629 8.07269 37.9591 7.97164C37.8552 7.87048 37.7143 7.81372 37.5674 7.81372H30.3683C30.2213 7.81372 30.0805 7.87048 29.9767 7.97164C29.8727 8.07269 29.8145 8.20981 29.8145 8.35289V31.5236C29.8145 31.6666 29.8727 31.8037 29.9767 31.9048C30.0805 32.0059 30.2213 32.0627 30.3683 32.0627H37.5674C37.7143 32.0627 37.8552 32.0059 37.9591 31.9048C38.0629 31.8037 38.1213 31.6666 38.1213 31.5236V23.9818H45.8743C46.0211 23.9818 46.162 23.9249 46.2659 23.8239C46.3697 23.7227 46.4281 23.5856 46.4281 23.4426V16.4338Z" fill="white"/>
</svg>
