<svg width="123" height="40" viewBox="0 0 123 40" fill="none" xmlns="http://www.w3.org/2000/svg">
<g opacity="0.4">
<path d="M93.5762 21.073C93.6313 20.7466 93.6695 20.4119 93.6695 20.069C93.6695 16.739 90.9068 14.037 87.4991 14.037C84.0913 14.037 81.3286 16.739 81.3286 20.069C81.3286 23.4031 84.0913 26.101 87.4991 26.101C89.7059 26.101 91.7471 24.9483 92.842 23.085L90.4655 21.7464C89.8544 22.7834 88.7255 23.4197 87.4991 23.4197C85.9968 23.4155 84.6727 22.4653 84.2271 21.0688L93.5762 21.073ZM87.4948 16.7183C88.9929 16.7225 90.317 17.6686 90.7626 19.0609H84.2229C84.677 17.6686 85.9968 16.7225 87.4948 16.7183ZM60.6657 21.073C60.7208 20.7466 60.7548 20.4119 60.7548 20.069C60.7548 16.739 57.9921 14.037 54.5843 14.037C51.1766 14.037 48.4139 16.739 48.4139 20.069C48.4139 23.4031 51.1766 26.101 54.5843 26.101C56.7911 26.101 58.8281 24.9483 59.9273 23.085L57.5507 21.7464C56.9396 22.7834 55.8108 23.4197 54.5843 23.4197C53.082 23.4197 51.758 22.4653 51.3124 21.0688L60.6657 21.073ZM54.5886 16.7183C56.0866 16.7225 57.4107 17.6686 57.8563 19.0609H51.3166C51.7665 17.6686 53.0905 16.7225 54.5886 16.7183ZM41.2164 14.0329C40.3804 14.0329 39.5571 14.2312 38.8145 14.6154V11.021H36.073V26.101H38.8145V19.0609C38.8102 17.7678 39.8839 16.7183 41.2122 16.7142C42.5405 16.7183 43.6142 17.7678 43.6099 19.0609V26.0969H46.3514V19.0609C46.3599 16.2845 44.0555 14.0329 41.2164 14.0329ZM106.18 26.0969L101.724 20.0649L106.057 14.1981H102.802L100.095 17.8586L97.3913 14.1981H94.1364L98.4693 20.0649L94.0133 26.0969H97.2683L100.099 22.267L102.929 26.0969H106.18ZM27.8443 14.0329C26.6221 14.0329 25.4296 14.3882 24.4153 15.0492V15.0368H21.6738V29.1129H24.4153V25.0805C25.4296 25.7457 26.6221 26.101 27.8443 26.0969C31.252 26.0969 34.0147 23.3949 34.0147 20.0649C34.019 16.7307 31.2563 14.0329 27.8443 14.0329ZM27.8443 23.4155C25.9473 23.4114 24.4111 21.9117 24.4153 20.0649C24.4111 18.2181 25.9431 16.7183 27.84 16.7142C29.737 16.7183 31.2733 18.2181 31.269 20.0649C31.2775 21.9117 29.7455 23.4114 27.8443 23.4155ZM79.2789 18.718C79.2789 16.1275 77.1273 14.0246 74.4792 14.0246C73.1806 14.0246 71.9371 14.5369 71.0375 15.45C69.4885 13.8965 67.0441 13.5908 65.1429 14.7104H62.8088V18.7015V18.7304V26.1051H65.5503V18.7304C65.5503 17.6231 66.4712 16.7225 67.6085 16.7183C68.7458 16.7225 69.6667 17.6231 69.6667 18.7304H69.6752V26.1051H72.4167V18.7304H72.4252V18.718C72.4252 17.6108 73.3418 16.7101 74.4834 16.706C75.6207 16.7101 76.5416 17.6108 76.5416 18.718V18.7304H76.5459V26.1051H79.2874L79.2789 18.718Z" fill="white"/>
<path d="M0.0859375 26.0957C0.0859375 29.4257 2.84864 32.1277 6.25639 32.1277V20.0637C6.25639 23.3937 3.49369 26.0957 0.0859375 26.0957Z" fill="white"/>
<path d="M9.33933 20.064C9.33933 23.394 12.102 26.096 15.5098 26.096V14.032C15.5098 17.3661 12.7471 20.064 9.33933 20.064ZM0.0878906 14.032V26.096C3.49565 26.096 6.25835 23.394 6.25835 20.064C6.25835 16.734 3.49565 14.032 0.0878906 14.032Z" fill="white"/>
<path d="M9.33789 8.00439V20.0643C12.7456 20.0643 15.5083 17.3664 15.5083 14.0323C15.5083 10.6981 12.7456 8.00439 9.33789 8.00439Z" fill="white"/>
</g>
</svg>
