<svg width="123" height="40" viewBox="0 0 123 40" fill="none" xmlns="http://www.w3.org/2000/svg">
<g opacity="0.4">
<path d="M25.1005 22.5483C25.1005 16.4954 20.1954 11.5903 14.1425 11.5903C8.08967 11.5903 3.18457 16.4977 3.18457 22.5483C3.18457 28.5989 8.08967 33.5062 14.1425 33.5062C14.7548 33.5062 15.3535 33.4543 15.9387 33.3571C15.9704 33.4 16.0065 33.4407 16.0539 33.4746L20.4936 36.5722C20.8235 36.8027 21.2754 36.5632 21.2708 36.1587L21.194 30.9328C23.5822 28.922 25.1005 25.9125 25.1005 22.5483ZM8.42405 22.5483C8.42405 19.3897 10.9839 16.8298 14.1425 16.8298C17.3011 16.8298 19.861 19.3897 19.861 22.5483C19.861 25.7069 17.3011 28.2668 14.1425 28.2668C10.9839 28.2668 8.42405 25.7069 8.42405 22.5483Z" fill="#8D8D93"/>
<path d="M42.4659 12.5415H38.1415C37.8613 12.5415 37.6331 12.7697 37.6331 13.0499V22.8081C37.6331 22.8081 37.7483 27.4669 33.7402 27.4669C29.7321 27.4669 29.958 22.8081 29.958 22.8081V13.0499C29.958 12.7697 29.7298 12.5415 29.4497 12.5415H25.1252C24.8451 12.5415 24.6191 12.7674 24.6169 13.0453C24.6078 13.9785 24.6056 16.5203 24.6756 23.1086C24.705 25.9328 25.0258 28.0679 26.4289 29.9703C28.277 32.4782 32.0299 33.1063 33.7967 33.0769C35.5635 33.1063 38.9752 32.3991 41.1645 29.9703C42.6557 28.3164 42.8884 25.9305 42.9178 23.1086C42.9878 16.5203 42.9833 13.9785 42.9765 13.0453C42.9743 12.7652 42.7461 12.5415 42.4682 12.5415H42.4659Z" fill="white"/>
<path d="M48.2573 10.8584C49.9543 10.8584 51.3301 9.48267 51.3301 7.78564C51.3301 6.08861 49.9543 4.71289 48.2573 4.71289C46.5603 4.71289 45.1846 6.08861 45.1846 7.78564C45.1846 9.48267 46.5603 10.8584 48.2573 10.8584Z" fill="white"/>
<path d="M50.4319 12.4917H46.347C45.9677 12.4917 45.6602 12.7992 45.6602 13.1785V32.0917C45.6602 32.4711 45.9677 32.7786 46.347 32.7786H50.4319C50.8113 32.7786 51.1188 32.4711 51.1188 32.0917V13.1785C51.1188 12.7992 50.8113 12.4917 50.4319 12.4917Z" fill="white"/>
<path d="M71.4513 31.4345L64.3569 22.0016L70.8345 13.6713C71.2096 13.172 70.8616 12.458 70.238 12.449L65.4369 12.3676L59.07 20.4991V3.21265L53.6113 7.18688V31.9925C53.6113 32.3721 53.9186 32.6794 54.2982 32.6794H58.3831C58.7627 32.6794 59.07 32.3721 59.07 31.9925V23.5086L59.1829 23.6057L66.0333 32.6523L70.8345 32.6477C71.4581 32.6477 71.8196 31.9383 71.4513 31.4345Z" fill="white"/>
</g>
</svg>
