<svg width="30" height="31" viewBox="0 0 30 31" fill="none" xmlns="http://www.w3.org/2000/svg">
<mask id="mask0_2108_1276" style="mask-type:luminance" maskUnits="userSpaceOnUse" x="2" y="2" width="26" height="26">
<path d="M28 2.7417H2V27.7417H28V2.7417Z" fill="white"/>
</mask>
<g mask="url(#mask0_2108_1276)">
<path d="M12.2019 18.5551L11.7719 24.3717C12.3872 24.3717 12.6537 24.1176 12.9733 23.8124L15.8582 21.1614L21.836 25.3707C22.9323 25.9582 23.7048 25.6489 24.0006 24.401L27.9243 6.72176L27.9254 6.72072C28.2732 5.16239 27.3393 4.55301 26.2712 4.9353L3.20703 13.426C1.63294 14.0135 1.65678 14.8572 2.93944 15.2395L8.83603 17.003L22.5326 8.76239C23.1772 8.35197 23.7633 8.57905 23.2812 8.98947L12.2019 18.5551Z" fill="white"/>
</g>
</svg>
