<svg width="138" height="138" viewBox="0 0 138 138" fill="none" xmlns="http://www.w3.org/2000/svg">
<path fill-rule="evenodd" clip-rule="evenodd" d="M3 43.9219C3 23.0675 18.428 6 37.6493 6C51.4565 6 63.4393 13.0803 69 25.7704C74.5607 13.0803 86.5435 6 100.351 6C119.572 6 135 23.0675 135 43.9219C135 63.2138 122.611 82.2159 108.372 97.7931C94.0975 113.409 77.7823 125.777 69.5928 131.805C69.2402 132.065 68.7598 132.065 68.4072 131.805C60.2177 125.777 43.9025 113.409 29.6284 97.7931C15.3895 82.2159 3 63.2138 3 43.9219ZM37.6493 8C19.7032 8 5 23.9934 5 43.9219C5 51.7571 7.14026 59.5953 10.6845 67.2064L22.3795 55.5113C25.0835 52.8074 29.4674 52.8074 32.1713 55.5113C33.5329 56.8729 34.2088 58.6606 34.1991 60.4452L37.567 57.0773C40.271 54.3733 44.6549 54.3733 47.3588 57.0773C48.7209 58.4394 49.3968 60.2278 49.3866 62.0131L51.2663 60.1334C53.9702 57.4295 58.3541 57.4295 61.058 60.1334C63.7619 62.8373 63.7619 67.2212 61.058 69.9251L52.3668 78.6163C54.1525 78.6057 55.9416 79.2817 57.3041 80.6441C60.008 83.3481 60.008 87.732 57.3041 90.4359L41.1166 106.623C51.9544 116.924 62.6368 125.059 69 129.758C75.3718 125.053 86.0745 116.902 96.9275 106.582L80.7818 90.4359C78.0779 87.732 78.0779 83.3481 80.7818 80.6441C82.1443 79.2817 83.9334 78.6057 85.7191 78.6163L77.0279 69.9251C74.324 67.2212 74.324 62.8373 77.0279 60.1334C79.7318 57.4295 84.1158 57.4295 86.8197 60.1334L88.6993 62.0131C88.6891 60.2278 89.365 58.4394 90.7272 57.0773C93.4311 54.3733 97.815 54.3733 100.519 57.0773L103.887 60.4452C103.877 58.6606 104.553 56.8729 105.915 55.5113C108.619 52.8074 113.002 52.8074 115.706 55.5113L127.343 67.1477C130.871 59.555 133 51.737 133 43.9219C133 23.9934 118.297 8 100.351 8C86.4729 8 74.6855 15.5056 69.942 28.8182C69.8 29.2165 69.4229 29.4825 69 29.4825C68.5771 29.4825 68.1999 29.2165 68.058 28.8182C63.3145 15.5056 51.5271 8 37.6493 8ZM39.6727 105.239L55.8899 89.0217C57.8128 87.0988 57.8127 83.9812 55.8899 82.0584C53.967 80.1355 50.8494 80.1355 48.9266 82.0584L32.7573 98.2277C35.0339 100.653 37.3526 102.994 39.6727 105.239ZM31.3946 96.7602L59.6438 68.5109C61.5667 66.5881 61.5667 63.4705 59.6438 61.5476C57.7209 59.6248 54.6033 59.6248 52.6805 61.5476L24.9305 89.2976C26.9168 91.7402 28.9857 94.1256 31.1046 96.4437C31.2011 96.5493 31.2978 96.6548 31.3946 96.7602ZM23.6716 87.7277L45.9446 65.4548C47.8674 63.5319 47.8674 60.4143 45.9446 58.4915C44.0217 56.5686 40.9041 56.5686 38.9813 58.4915L32.261 65.2117C32.2314 65.2424 32.2015 65.2728 32.1713 65.3031L17.7923 79.6821C19.625 82.4182 21.5977 85.1041 23.6716 87.7277ZM16.6706 77.9737L30.8326 63.8117C32.6796 61.8835 32.6544 58.8229 30.7571 56.9255C28.8342 55.0027 25.7166 55.0027 23.7938 56.9255L11.6046 69.1147C13.0982 72.1111 14.8021 75.0688 16.6706 77.9737ZM105.284 98.1833C103.009 100.609 100.691 102.951 98.371 105.197L82.1961 89.0217C80.2732 87.0988 80.2732 83.9812 82.1961 82.0584C84.1189 80.1355 87.2365 80.1355 89.1594 82.0584L105.284 98.1833ZM106.895 96.4437C106.813 96.5344 106.73 96.6249 106.647 96.7154L78.4422 68.5109C76.5193 66.5881 76.5193 63.4705 78.4421 61.5476C80.365 59.6248 83.4826 59.6248 85.4055 61.5476L113.108 89.2502C111.11 91.7094 109.028 94.1107 106.895 96.4437ZM120.242 79.6306C118.411 82.3678 116.439 85.0549 114.366 87.6797L92.1414 65.4548C90.2185 63.5319 90.2185 60.4143 92.1414 58.4915C94.0642 56.5686 97.1818 56.5686 99.1047 58.4915L105.825 65.2117C105.855 65.2424 105.884 65.2728 105.915 65.3031L120.242 79.6306ZM126.424 69.0574C124.932 72.0553 123.23 75.0148 121.363 77.9214L107.253 63.8117C105.406 61.8835 105.432 58.8229 107.329 56.9255C109.252 55.0027 112.369 55.0027 114.292 56.9255L126.424 69.0574Z" fill="white"/>
</svg>
