<svg width="138" height="138" viewBox="0 0 138 138" fill="none" xmlns="http://www.w3.org/2000/svg">
<path fill-rule="evenodd" clip-rule="evenodd" d="M9 0V138H129.669V0H9ZM127.669 2H69V69.4829H127.669V2ZM127.669 71.4829H69V136H127.669V71.4829ZM67 69.4829V2H11V69.4829H67ZM11 71.4829V136H67V71.4829H11Z" fill="white"/>
<path d="M40.6526 117.165C38.8646 117.215 37.0908 116.797 35.4944 115.948C34.0753 115.139 32.9188 113.907 32.1667 112.409C31.3579 110.761 30.9605 108.926 31.0031 107.074V99.0415C30.9605 97.1985 31.365 95.374 32.1667 93.7348C32.933 92.2535 34.0824 91.0352 35.4944 90.2259C37.0766 89.3436 38.8575 88.9042 40.6526 88.95C42.4265 88.9072 44.1861 89.3472 45.7471 90.2259C47.1519 91.0396 48.2942 92.258 49.0463 93.7348C49.8552 95.374 50.2525 97.1985 50.2099 99.0415V103.797H34.0824V107.074C33.9618 109.014 34.572 110.927 35.7711 112.409C36.4026 113.081 37.1689 113.603 38.0061 113.938C38.8505 114.273 39.7515 114.415 40.6526 114.353C42.1284 114.426 43.5901 114.02 44.8318 113.193C45.9315 112.404 46.712 111.231 47.0526 109.887H50.1532C49.9971 110.948 49.6353 111.965 49.096 112.88C48.5639 113.796 47.8543 114.592 47.0242 115.223C45.1581 116.578 42.9231 117.26 40.6526 117.165ZM47.1377 101.565V99.0415C47.2371 97.0988 46.6482 95.1857 45.4703 93.6772C44.8531 93.0082 44.0939 92.4883 43.2637 92.1531C42.4336 91.8179 41.5395 91.6747 40.6526 91.7345C39.7515 91.6739 38.8576 91.8134 38.0132 92.1435C37.176 92.4728 36.4097 92.986 35.7711 93.6476C34.572 95.1554 33.9689 97.0841 34.0824 99.0415V101.187H47.5776L47.1377 101.565Z" fill="#D6D6D6"/>
<path d="M111.186 91.5169L109.164 89.6318L99.0462 101.637L88.9284 89.6318L86.9062 91.5169L97.244 103.754L86.9062 116.02L88.9284 117.905L99.0462 105.9L109.164 117.905L111.186 116.02L100.848 103.754L111.186 91.5169Z" fill="#D6D6D6"/>
<path d="M42.478 46.4891V24.2482V21H39.3704H33.9141V24.2482H39.3704V46.4891H33.9141V49.7373H47.9343V46.4891H42.478Z" fill="#D6D6D6"/>
</svg>
