<?xml version="1.0" standalone="no"?>
<svg id="Frame290113" width="138" height="138" viewBox="0 0 138 138" fill="none" xmlns="http://www.w3.org/2000/svg" style="max-width: 100%; max-height: 100%;">
<path fill-rule="evenodd" clip-rule="evenodd" d="M37.6493 6.5166C51.9115 6.5166 64.102 14.2531 69 27.9991C73.898 14.2531 86.0885 6.5166 100.351 6.5166C118.934 6.5166 134 23.0471 134 43.4385C134 81.2309 85.3561 118.477 69 130.517C52.6439 118.477 4 81.2309 4 43.4385C4 23.0471 19.0656 6.5166 37.6493 6.5166Z" stroke="white" stroke-width="2" stroke-linejoin="round" stroke-dasharray="0,0,333.23837890625003,83.30959472656248"><animate attributeType="XML" attributeName="stroke-dasharray" repeatCount="indefinite" dur="2.5s" values="0,0,333.23837890625003,83.30959472656248; 
          0,83.30959472656248,333.23837890625003,0; 
          333.23837890625003,83.30959472656248,0,0" keyTimes="0; 0.19999999999999996; 1"></animate></path>
<path d="M128.08 67.4017L115.706 55.0279C113.002 52.324 108.619 52.324 105.915 55.0279C104.553 56.3896 103.877 58.1772 103.887 59.9618L100.519 56.5939C97.815 53.8899 93.4311 53.8899 90.7272 56.5939C89.365 57.956 88.6891 59.7444 88.6993 61.5297L86.8197 59.65C84.1158 56.9461 79.7319 56.9461 77.0279 59.65C74.324 62.3539 74.324 66.7378 77.0279 69.4418L85.7191 78.1329C83.9334 78.1223 82.1443 78.7983 80.7818 80.1607C78.0779 82.8647 78.0779 87.2486 80.7818 89.9525L97.7611 106.932C98.2411 106.473 98.7213 106.01 99.2013 105.544L82.1961 88.5383C80.2732 86.6154 80.2732 83.4978 82.1961 81.575C84.1189 79.6521 87.2365 79.6521 89.1594 81.575L106.097 98.513C106.552 98.0258 107.005 97.5352 107.456 97.0414L78.4422 68.0275C76.5193 66.1047 76.5193 62.9871 78.4421 61.0642C80.365 59.1414 83.4826 59.1414 85.4055 61.0642L113.899 89.5574C114.32 89.0353 114.739 88.5104 115.153 87.9829L92.1414 64.9714C90.2185 63.0485 90.2185 59.9309 92.1414 58.0081C94.0642 56.0852 97.1818 56.0852 99.1047 58.0081L105.825 64.7283C105.855 64.759 105.884 64.7894 105.915 64.8197L121.008 79.9134C121.387 79.3445 121.759 78.7733 122.125 78.1999L107.253 63.3283C105.406 61.4001 105.432 58.3395 107.329 56.4421C109.252 54.5193 112.369 54.5193 114.292 56.4421L127.165 69.3152C127.48 68.6792 127.785 68.0414 128.08 67.4017Z" fill="white" stroke-dasharray="0,0,348.8739013671875,87.21847534179686"><animate attributeType="XML" attributeName="stroke-dasharray" repeatCount="indefinite" dur="2.5s" values="0,0,348.8739013671875,87.21847534179686; 
          0,87.21847534179686,348.8739013671875,0; 
          348.8739013671875,87.21847534179686,0,0" keyTimes="0; 0.19999999999999996; 1"></animate></path>
<path d="M10.0018 67.4017L22.3756 55.0279C25.0795 52.324 29.4635 52.324 32.1674 55.0279C33.529 56.3896 34.2049 58.1772 34.1952 59.9618L37.5631 56.5939C40.267 53.8899 44.651 53.8899 47.3549 56.5939C48.717 57.956 49.3929 59.7444 49.3827 61.5297L51.2624 59.65C53.9663 56.9461 58.3502 56.9461 61.0541 59.65C63.758 62.3539 63.758 66.7378 61.0541 69.4418L52.3629 78.1329C54.1486 78.1223 55.9377 78.7983 57.3002 80.1607C60.0041 82.8647 60.0041 87.2486 57.3002 89.9525L40.3209 106.932C39.8409 106.473 39.3608 106.01 38.8807 105.544L55.886 88.5383C57.8088 86.6154 57.8088 83.4978 55.886 81.575C53.9631 79.6521 50.8455 79.6521 48.9227 81.575L31.9846 98.513C31.5299 98.0258 31.0769 97.5352 30.626 97.0414L59.6399 68.0275C61.5627 66.1047 61.5627 62.9871 59.6399 61.0642C57.717 59.1414 54.5994 59.1414 52.6766 61.0642L24.1834 89.5574C23.7616 89.0353 23.3434 88.5104 22.9292 87.9829L45.9407 64.9714C47.8635 63.0485 47.8635 59.9309 45.9407 58.0081C44.0178 56.0852 40.9002 56.0852 38.9773 58.0081L32.2571 64.7283C32.2275 64.759 32.1976 64.7894 32.1674 64.8197L17.0737 79.9134C16.6955 79.3445 16.3231 78.7733 15.9571 78.1999L30.8287 63.3283C32.6757 61.4001 32.6505 58.3395 30.7532 56.4421C28.8303 54.5193 25.7127 54.5193 23.7898 56.4421L10.9168 69.3152C10.6023 68.6792 10.2972 68.0414 10.0018 67.4017Z" fill="white" stroke-dasharray="0,0,348.8741455078125,87.21853637695311"><animate attributeType="XML" attributeName="stroke-dasharray" repeatCount="indefinite" dur="2.5s" values="0,0,348.8741455078125,87.21853637695311; 
          0,87.21853637695311,348.8741455078125,0; 
          348.8741455078125,87.21853637695311,0,0" keyTimes="0; 0.19999999999999996; 1"></animate></path>
</svg>