<svg width="139" height="138" viewBox="0 0 139 138" fill="none" xmlns="http://www.w3.org/2000/svg">
<path fill-rule="evenodd" clip-rule="evenodd" d="M7 109C5.89543 109 5 108.105 5 107V97C5 95.8954 5.89543 95 7 95H41C42.1046 95 43 95.8954 43 97V107C43 108.105 42.1046 109 41 109H7ZM7 107V97H41V107H7Z" fill="white"/>
<path fill-rule="evenodd" clip-rule="evenodd" d="M7 131C5.89543 131 5 130.105 5 129V119C5 117.895 5.89543 117 7 117H41C42.1046 117 43 117.895 43 119V129C43 130.105 42.1046 131 41 131H7ZM7 129V119H41V129H7Z" fill="white"/>
<path fill-rule="evenodd" clip-rule="evenodd" d="M53 65C51.8954 65 51 64.1046 51 63V53C51 51.8954 51.8954 51 53 51H87C88.1046 51 89 51.8954 89 53V63C89 64.1046 88.1046 65 87 65H53ZM53 63V53H87V63H53Z" fill="white"/>
<path fill-rule="evenodd" clip-rule="evenodd" d="M53 87C51.8954 87 51 86.1046 51 85V75C51 73.8954 51.8954 73 53 73H87C88.1046 73 89 73.8954 89 75V85C89 86.1046 88.1046 87 87 87H53ZM53 85V75H87V85H53Z" fill="white"/>
<path fill-rule="evenodd" clip-rule="evenodd" d="M51 107C51 108.105 51.8954 109 53 109H87C88.1046 109 89 108.105 89 107V97C89 95.8954 88.1046 95 87 95H53C51.8954 95 51 95.8954 51 97V107ZM53 97V107H87V97H53Z" fill="white"/>
<path fill-rule="evenodd" clip-rule="evenodd" d="M53 131C51.8954 131 51 130.105 51 129V119C51 117.895 51.8954 117 53 117H87C88.1046 117 89 117.895 89 119V129C89 130.105 88.1046 131 87 131H53ZM53 129V119H87V129H53Z" fill="white"/>
<path fill-rule="evenodd" clip-rule="evenodd" d="M99 21C97.8954 21 97 20.1046 97 19V9C97 7.89543 97.8954 7 99 7H133C134.105 7 135 7.89543 135 9V19C135 20.1046 134.105 21 133 21H99ZM99 19V9H133V19H99Z" fill="white"/>
<path fill-rule="evenodd" clip-rule="evenodd" d="M99 43C97.8954 43 97 42.1046 97 41V31C97 29.8954 97.8954 29 99 29H133C134.105 29 135 29.8954 135 31V41C135 42.1046 134.105 43 133 43H99ZM99 41V31H133V41H99Z" fill="white"/>
<path fill-rule="evenodd" clip-rule="evenodd" d="M97 63C97 64.1046 97.8954 65 99 65H133C134.105 65 135 64.1046 135 63V53C135 51.8954 134.105 51 133 51H99C97.8954 51 97 51.8954 97 53V63ZM99 53V63H133V53H99Z" fill="white"/>
<path fill-rule="evenodd" clip-rule="evenodd" d="M99 87C97.8954 87 97 86.1046 97 85V75C97 73.8954 97.8954 73 99 73H133C134.105 73 135 73.8954 135 75V85C135 86.1046 134.105 87 133 87H99ZM99 85V75H133V85H99Z" fill="white"/>
<path fill-rule="evenodd" clip-rule="evenodd" d="M97 107C97 108.105 97.8954 109 99 109H133C134.105 109 135 108.105 135 107V97C135 95.8954 134.105 95 133 95H99C97.8954 95 97 95.8954 97 97V107ZM99 97V107H133V97H99Z" fill="white"/>
<path fill-rule="evenodd" clip-rule="evenodd" d="M99 131C97.8954 131 97 130.105 97 129V119C97 117.895 97.8954 117 99 117H133C134.105 117 135 117.895 135 119V129C135 130.105 134.105 131 133 131H99ZM99 129V119H133V129H99Z" fill="white"/>
</svg>
