<svg width="138" height="138" viewBox="0 0 138 138" fill="none" xmlns="http://www.w3.org/2000/svg">
<path fill-rule="evenodd" clip-rule="evenodd" d="M137.242 48.0254L113.953 7L23.9531 7.00001L0.664062 48.0254L1.63532 49.2773H1.63705L68.9158 136L68.9531 135.951L68.9904 136L136.269 49.2773H136.271L137.242 48.0254ZM70.118 9.16807L112.708 9.16807L91.3175 46.9522L70.118 9.16807ZM68.918 11.1166L89.0511 47H48.7849L68.918 11.1166ZM25.1509 9.2225L46.5145 46.9591L67.718 9.16807L25.1839 9.16808L25.1509 9.2225ZM44.2394 47L23.9624 11.1829L23.9531 11.1982L3.62916 47H44.2394ZM4.1638 49H45.2446L66.9068 130.041L66.8855 130.014L4.2503 49.2773L4.1638 49ZM90.5133 49L68.9141 129.805L47.3148 49H90.5133ZM92.5835 49L70.8824 130.187L71.0208 130.014L133.656 49.2773L133.742 49H92.5835ZM134.277 47L113.953 11.1982L113.903 11.1162L93.5887 47H134.277Z" fill="white"/>
</svg>
