<?xml version="1.0" standalone="no"?>
<svg id="Frame290110" width="139" height="138" viewBox="0 0 139 138" fill="none" xmlns="http://www.w3.org/2000/svg" style="max-width: 100%; max-height: 100%;">
<path d="M6 107L6 97C6 96.4477 6.44772 96 7 96H41C41.5523 96 42 96.4477 42 97V107C42 107.552 41.5523 108 41 108H7C6.44772 108 6 107.552 6 107Z" stroke="white" stroke-width="2" stroke-dasharray="0,0,75.42719116210938,18.856797790527338"><animate attributeType="XML" attributeName="stroke-dasharray" repeatCount="indefinite" dur="2.5s" values="0,0,75.42719116210938,18.856797790527338; 
          0,18.856797790527338,75.42719116210938,0; 
          75.42719116210938,18.856797790527338,0,0" keyTimes="0; 0.19999999999999996; 1"></animate></path>
<path d="M6 129L6 119C6 118.448 6.44772 118 7 118H41C41.5523 118 42 118.448 42 119V129C42 129.552 41.5523 130 41 130H7C6.44772 130 6 129.552 6 129Z" stroke="white" stroke-width="2" stroke-dasharray="0,0,75.42709350585938,18.85677337646484"><animate attributeType="XML" attributeName="stroke-dasharray" repeatCount="indefinite" dur="2.5s" values="0,0,75.42709350585938,18.85677337646484; 
          0,18.85677337646484,75.42709350585938,0; 
          75.42709350585938,18.85677337646484,0,0" keyTimes="0; 0.19999999999999996; 1"></animate></path>
<path d="M52 63V53C52 52.4477 52.4477 52 53 52H87C87.5523 52 88 52.4477 88 53V63C88 63.5523 87.5523 64 87 64H53C52.4477 64 52 63.5523 52 63Z" stroke="white" stroke-width="2" stroke-dasharray="0,0,75.42731323242188,18.856828308105463"><animate attributeType="XML" attributeName="stroke-dasharray" repeatCount="indefinite" dur="2.5s" values="0,0,75.42731323242188,18.856828308105463; 
          0,18.856828308105463,75.42731323242188,0; 
          75.42731323242188,18.856828308105463,0,0" keyTimes="0; 0.19999999999999996; 1"></animate></path>
<path d="M52 85V75C52 74.4477 52.4477 74 53 74H87C87.5523 74 88 74.4477 88 75V85C88 85.5523 87.5523 86 87 86H53C52.4477 86 52 85.5523 52 85Z" stroke="white" stroke-width="2" stroke-dasharray="0,0,75.42731323242188,18.856828308105463"><animate attributeType="XML" attributeName="stroke-dasharray" repeatCount="indefinite" dur="2.5s" values="0,0,75.42731323242188,18.856828308105463; 
          0,18.856828308105463,75.42731323242188,0; 
          75.42731323242188,18.856828308105463,0,0" keyTimes="0; 0.19999999999999996; 1"></animate></path>
<path d="M52 107V97C52 96.4477 52.4477 96 53 96H87C87.5523 96 88 96.4477 88 97V107C88 107.552 87.5523 108 87 108H53C52.4477 108 52 107.552 52 107Z" stroke="white" stroke-width="2" stroke-dasharray="0,0,75.42720336914063,18.856800842285153"><animate attributeType="XML" attributeName="stroke-dasharray" repeatCount="indefinite" dur="2.5s" values="0,0,75.42720336914063,18.856800842285153; 
          0,18.856800842285153,75.42720336914063,0; 
          75.42720336914063,18.856800842285153,0,0" keyTimes="0; 0.19999999999999996; 1"></animate></path>
<path d="M52 129V119C52 118.448 52.4477 118 53 118H87C87.5523 118 88 118.448 88 119V129C88 129.552 87.5523 130 87 130H53C52.4477 130 52 129.552 52 129Z" stroke="white" stroke-width="2" stroke-dasharray="0,0,75.42710571289062,18.856776428222652"><animate attributeType="XML" attributeName="stroke-dasharray" repeatCount="indefinite" dur="2.5s" values="0,0,75.42710571289062,18.856776428222652; 
          0,18.856776428222652,75.42710571289062,0; 
          75.42710571289062,18.856776428222652,0,0" keyTimes="0; 0.19999999999999996; 1"></animate></path>
<path d="M98 19V9C98 8.44772 98.4477 8 99 8L133 8C133.552 8 134 8.44771 134 9V19C134 19.5523 133.552 20 133 20L99 20C98.4477 20 98 19.5523 98 19Z" stroke="white" stroke-width="2" stroke-dasharray="0,0,75.427197265625,18.856799316406246"><animate attributeType="XML" attributeName="stroke-dasharray" repeatCount="indefinite" dur="2.5s" values="0,0,75.427197265625,18.856799316406246; 
          0,18.856799316406246,75.427197265625,0; 
          75.427197265625,18.856799316406246,0,0" keyTimes="0; 0.19999999999999996; 1"></animate></path>
<path d="M98 41V31C98 30.4477 98.4477 30 99 30L133 30C133.552 30 134 30.4477 134 31V41C134 41.5523 133.552 42 133 42L99 42C98.4477 42 98 41.5523 98 41Z" stroke="white" stroke-width="2" stroke-dasharray="0,0,75.42721557617188,18.856803894042965"><animate attributeType="XML" attributeName="stroke-dasharray" repeatCount="indefinite" dur="2.5s" values="0,0,75.42721557617188,18.856803894042965; 
          0,18.856803894042965,75.42721557617188,0; 
          75.42721557617188,18.856803894042965,0,0" keyTimes="0; 0.19999999999999996; 1"></animate></path>
<path d="M98 63V53C98 52.4477 98.4477 52 99 52H133C133.552 52 134 52.4477 134 53V63C134 63.5523 133.552 64 133 64H99C98.4477 64 98 63.5523 98 63Z" stroke="white" stroke-width="2" stroke-dasharray="0,0,75.42721557617188,18.856803894042965"><animate attributeType="XML" attributeName="stroke-dasharray" repeatCount="indefinite" dur="2.5s" values="0,0,75.42721557617188,18.856803894042965; 
          0,18.856803894042965,75.42721557617188,0; 
          75.42721557617188,18.856803894042965,0,0" keyTimes="0; 0.19999999999999996; 1"></animate></path>
<path d="M98 85V75C98 74.4477 98.4477 74 99 74H133C133.552 74 134 74.4477 134 75V85C134 85.5523 133.552 86 133 86H99C98.4477 86 98 85.5523 98 85Z" stroke="white" stroke-width="2" stroke-dasharray="0,0,75.42721557617188,18.856803894042965"><animate attributeType="XML" attributeName="stroke-dasharray" repeatCount="indefinite" dur="2.5s" values="0,0,75.42721557617188,18.856803894042965; 
          0,18.856803894042965,75.42721557617188,0; 
          75.42721557617188,18.856803894042965,0,0" keyTimes="0; 0.19999999999999996; 1"></animate></path>
<path d="M98 107V97C98 96.4477 98.4477 96 99 96H133C133.552 96 134 96.4477 134 97V107C134 107.552 133.552 108 133 108H99C98.4477 108 98 107.552 98 107Z" stroke="white" stroke-width="2" stroke-dasharray="0,0,75.42710571289062,18.856776428222652"><animate attributeType="XML" attributeName="stroke-dasharray" repeatCount="indefinite" dur="2.5s" values="0,0,75.42710571289062,18.856776428222652; 
          0,18.856776428222652,75.42710571289062,0; 
          75.42710571289062,18.856776428222652,0,0" keyTimes="0; 0.19999999999999996; 1"></animate></path>
<path d="M98 129V119C98 118.448 98.4477 118 99 118H133C133.552 118 134 118.448 134 119V129C134 129.552 133.552 130 133 130H99C98.4477 130 98 129.552 98 129Z" stroke="white" stroke-width="2" stroke-dasharray="0,0,75.42700805664063,18.85675201416015"><animate attributeType="XML" attributeName="stroke-dasharray" repeatCount="indefinite" dur="2.5s" values="0,0,75.42700805664063,18.85675201416015; 
          0,18.85675201416015,75.42700805664063,0; 
          75.42700805664063,18.85675201416015,0,0" keyTimes="0; 0.19999999999999996; 1"></animate></path>
</svg>