<svg width="139" height="138" viewBox="0 0 139 138" fill="none" xmlns="http://www.w3.org/2000/svg">
<path fill-rule="evenodd" clip-rule="evenodd" d="M69.3359 136C106.339 136 136.336 106.003 136.336 69C136.336 31.9969 106.339 2 69.3359 2C32.3329 2 2.33594 31.9969 2.33594 69C2.33594 106.003 32.3329 136 69.3359 136ZM69.3359 138C107.444 138 138.336 107.108 138.336 69C138.336 30.8924 107.444 0 69.3359 0C31.2283 0 0.335937 30.8924 0.335938 69C0.335938 107.108 31.2283 138 69.3359 138ZM56.8359 68.5166C56.8359 63.546 52.8065 59.5166 47.8359 59.5166C42.8654 59.5166 38.8359 63.546 38.8359 68.5166C38.8359 73.4872 42.8654 77.5166 47.8359 77.5166C52.8065 77.5166 56.8359 73.4872 56.8359 68.5166ZM58.8359 68.5166C58.8359 62.4415 53.9111 57.5166 47.8359 57.5166C41.7608 57.5166 36.8359 62.4415 36.8359 68.5166C36.8359 74.5917 41.7608 79.5166 47.8359 79.5166C53.9111 79.5166 58.8359 74.5917 58.8359 68.5166ZM127.336 63.5166H86.5184C84.0641 44.3389 67.681 29.5166 47.8359 29.5166C26.2968 29.5166 8.83594 46.9775 8.83594 68.5166C8.83594 90.0557 26.2968 107.517 47.8359 107.517C67.681 107.517 84.0641 92.6943 86.5184 73.5166H127.336V63.5166ZM84.5346 63.7705L84.7581 65.5166H125.336V71.5166H84.7581L84.5346 73.2627C82.2064 91.4549 66.6617 105.517 47.8359 105.517C27.4014 105.517 10.8359 88.9511 10.8359 68.5166C10.8359 48.0821 27.4014 31.5166 47.8359 31.5166C66.6617 31.5166 82.2064 45.5783 84.5346 63.7705ZM111.336 84.5166V76.5166H127.336V84.5166H111.336ZM113.336 82.5166V78.5166H125.336V82.5166H113.336Z" fill="white"/>
</svg>
