<svg width="30" height="31" viewBox="0 0 30 31" fill="none" xmlns="http://www.w3.org/2000/svg">
<mask id="mask0_2108_1275" style="mask-type:luminance" maskUnits="userSpaceOnUse" x="2" y="2" width="26" height="26">
<path d="M28 2.7417H2V27.7417H28V2.7417Z" fill="white"/>
</mask>
<g mask="url(#mask0_2108_1275)">
<path d="M28 7.49013C27.0331 7.89795 26.0029 8.16826 24.9287 8.29951C26.0337 7.66514 26.8771 6.66826 27.2736 5.4667C26.2434 6.05732 25.1059 6.47451 23.8936 6.70733C22.9154 5.70576 21.5211 5.08545 20.0001 5.08545C17.0491 5.08545 14.6734 7.38858 14.6734 10.212C14.6734 10.6183 14.7091 11.0089 14.7969 11.3808C10.3655 11.173 6.44437 9.13076 3.81025 6.01983C3.35037 6.78701 3.08063 7.66514 3.08063 8.61045C3.08063 10.3855 4.03125 11.9589 5.44825 12.8698C4.59187 12.8542 3.75175 12.6151 3.04 12.2386C3.04 12.2542 3.04 12.2745 3.04 12.2948C3.04 14.7854 4.88763 16.8542 7.3105 17.3308C6.87663 17.4448 6.40375 17.4995 5.913 17.4995C5.57175 17.4995 5.22725 17.4808 4.90387 17.412C5.5945 19.4417 7.55425 20.9339 9.88454 20.9823C8.071 22.3464 5.76837 23.1683 3.27563 23.1683C2.8385 23.1683 2.41925 23.1495 2 23.0979C4.36113 24.562 7.15937 25.398 10.177 25.398C19.9855 25.398 25.348 17.5854 25.348 10.8136C25.348 10.587 25.3399 10.3683 25.3285 10.1511C26.3864 9.4292 27.2753 8.52764 28 7.49013Z" fill="white"/>
</g>
</svg>
