<svg width="123" height="40" viewBox="0 0 123 40" fill="none" xmlns="http://www.w3.org/2000/svg">
<g opacity="0.4">
<path d="M64.5517 17.2016H57.1976L59.3203 10.6377H52.7886L45.7178 32.522H59.31C60.8422 32.522 62.335 32.0343 63.5745 31.1289C64.8141 30.2234 65.7367 28.9466 66.2102 27.4815L67.9882 21.9916C68.1669 21.4443 68.2144 20.8623 68.1266 20.2932C68.0389 19.724 67.8184 19.1837 67.4833 18.7166C67.1481 18.2494 66.7078 17.8687 66.1983 17.6054C65.6888 17.3421 65.1246 17.2037 64.5517 17.2016ZM61.5145 21.8029L60.0437 26.3526C59.8073 27.0855 59.3461 27.7243 58.7263 28.1773C58.1065 28.6304 57.3599 28.8745 56.5936 28.8746H53.4268L56.0203 20.849H60.8252C60.9397 20.8487 61.0526 20.8757 61.1546 20.9278C61.2567 20.98 61.345 21.0557 61.4123 21.1488C61.4796 21.2419 61.5239 21.3498 61.5417 21.4635C61.5595 21.5772 61.5502 21.6935 61.5145 21.8029Z" fill="white" fill-opacity="0.5"/>
<path d="M76.0109 10.6377L74.5947 15.0159H81.1264L82.5392 10.6377H76.0109Z" fill="white" fill-opacity="0.5"/>
<path d="M68.9355 32.5225H75.4672L80.4154 17.2021H73.8872L68.9355 32.5225Z" fill="white" fill-opacity="0.5"/>
<path d="M90.2074 20.849H94.5994L95.7767 17.2016H91.3847L93.5073 10.6377H86.9757L81.4473 27.7457C81.2708 28.2935 81.2256 28.8755 81.3155 29.4442C81.4054 30.0129 81.6278 30.5522 81.9646 31.0179C82.3014 31.4837 82.743 31.8628 83.2533 32.1242C83.7636 32.3855 84.3281 32.5219 84.9009 32.522H92.1491L93.3299 28.8746H88.6069C88.4931 28.8744 88.3811 28.847 88.2798 28.7949C88.1786 28.7427 88.0911 28.6671 88.0245 28.5744C87.9579 28.4817 87.9141 28.3744 87.8967 28.2614C87.8793 28.1483 87.8888 28.0328 87.9244 27.9241L90.2074 20.849Z" fill="white" fill-opacity="0.5"/>
<path d="M19.3838 18.2756L26.5263 10.6377H18.8753L12.9818 28.8746H8.08136C7.96773 28.8731 7.85602 28.8448 7.75523 28.792C7.65444 28.7392 7.56736 28.6634 7.50099 28.5706C7.43462 28.4779 7.3908 28.3707 7.37307 28.2579C7.35533 28.145 7.36416 28.0295 7.39885 27.9207L12.9784 10.6377H6.44675L0.918394 27.7526C0.741777 28.2994 0.696374 28.8806 0.785894 29.4485C0.875415 30.0163 1.09732 30.5549 1.43347 31.02C1.76962 31.4852 2.21047 31.8637 2.71999 32.1248C3.22951 32.3858 3.79323 32.5219 4.36508 32.522H18.3327L23.2809 17.2016L19.3838 18.2756Z" fill="white"/>
<path d="M43.5435 10.6377H28.5282L30.7668 18.2756L27.5624 17.205L22.5938 32.522H29.1254L31.4835 25.2272H38.5441C40.0756 25.2265 41.5677 24.7385 42.8066 23.8331C44.0454 22.9277 44.9676 21.6513 45.4409 20.1868L46.9868 15.4071C47.1625 14.8605 47.2074 14.2799 47.1177 13.7126C47.028 13.1453 46.8064 12.6073 46.4708 12.1424C46.1351 11.6776 45.6951 11.299 45.1864 11.0375C44.6777 10.776 44.1148 10.639 43.5435 10.6377ZM40.5131 15.2355L39.2778 19.0613C39.0407 19.7936 38.5793 20.4316 37.9595 20.884C37.3398 21.3364 36.5935 21.58 35.8277 21.5798H32.6608L35.0189 14.2851H39.8272C39.9412 14.2848 40.0537 14.3117 40.1554 14.3636C40.2571 14.4156 40.345 14.491 40.412 14.5839C40.479 14.6767 40.5231 14.7841 40.5406 14.8974C40.5582 15.0107 40.5488 15.1266 40.5131 15.2355Z" fill="white"/>
</g>
</svg>
